<?xml version="1.0" standalone="no"?>
<!DOCTYPE svg PUBLIC "-//W3C//DTD SVG 1.1//EN" "http://www.w3.org/Graphics/SVG/1.1/DTD/svg11.dtd" >
<svg xmlns="http://www.w3.org/2000/svg">
<metadata></metadata>
<defs>
<font id="oleo_script_swash_capsbold" horiz-adv-x="1685" >
<font-face units-per-em="2048" ascent="1638" descent="-410" />
<missing-glyph horiz-adv-x="409" />
<glyph horiz-adv-x="2048" />
<glyph horiz-adv-x="2048" />
<glyph unicode="&#xd;" horiz-adv-x="681" />
<glyph unicode=" "  horiz-adv-x="409" />
<glyph unicode="&#x09;" horiz-adv-x="409" />
<glyph unicode="&#xa0;" horiz-adv-x="409" />
<glyph unicode="!" horiz-adv-x="684" d="M72 135q0 78 63.5 136.5t152.5 58.5t137 -48.5t48 -124t-65.5 -133t-153.5 -57.5t-135 45t-47 123zM221 442q53 502 53 785l-12 178q225 70 389 70q27 -33 27 -109q0 -150 -97.5 -493t-140.5 -416q-63 -23 -120.5 -23t-98.5 8z" />
<glyph unicode="&#x22;" horiz-adv-x="804" d="M186 897l39 598q53 4 78 4q186 0 186 -119q0 -59 -61 -225t-115 -281zM528 897l39 598q53 4 78 4q186 0 186 -119q0 -59 -61 -225t-115 -281z" />
<glyph unicode="#" horiz-adv-x="1257" d="M35 514q119 18 252 18h6q6 29 21.5 91.5t23.5 105.5q-156 -8 -211 -22q-35 109 -39 223q127 14 260 14h23q27 150 26.5 202t-2.5 60q152 59 248 60q12 -35 12 -79t-39 -249q33 -4 154 -4q25 168 25 216t-2 56q156 59 256 60q10 -35 10 -93.5t-35 -236.5q131 0 225 6 q6 -41 6 -90q0 -137 -127 -137q-55 0 -135 6q-6 -39 -19 -108.5t-20 -106.5q106 0 236 18q6 -80 6 -92q0 -129 -127 -129q-88 0 -143 4q-27 -176 -37 -287q-59 -43 -242 -43h-22q2 41 51 345q-18 2 -98 2h-80q-37 -209 -45 -295q-66 -51 -217 -52h-43q6 86 59 342 q-111 -6 -189 -26q-23 104 -28 221zM530 528l177 -6l38 213q-20 2 -122 2h-41q-8 -37 -25.5 -103.5t-26.5 -105.5z" />
<glyph unicode="$" horiz-adv-x="1034" d="M35 184q29 78 118 171.5t166 97.5q104 -43 179 -318q104 4 104 119q0 84 -64.5 202.5t-142.5 219t-142.5 224.5t-64.5 218q0 150 137.5 243t315.5 93h21q12 102 16 199q76 0 168 -29l-39 -197q88 -33 138 -94t50 -127q0 -152 -250 -352q25 -31 62 -83t98.5 -182 t61.5 -224q0 -150 -131 -257.5t-320 -125.5q-12 -82 -18 -230q-80 0 -172 29l36 201q-139 16 -233 80.5t-94 121.5zM551 1190q0 -63 74 -166q14 -20 30 -43q51 25 117 89.5t66 125.5q0 100 -131 100q-70 0 -113 -30.5t-43 -75.5z" />
<glyph unicode="%" horiz-adv-x="1769" d="M78 993q0 225 125 365.5t325 140.5q150 0 220.5 -81t70.5 -187.5t-26.5 -193.5t-77.5 -163.5t-141.5 -124t-219.5 -47.5t-202.5 80t-73.5 211zM360 965.5q0 -150.5 50 -150.5q53 0 90 154.5t37 284.5t-43 130q-62 0 -98 -134t-36 -284.5zM446 39q94 322 316 717 q225 401 338 749q115 0 270 -53l14 -6q-72 -207 -210 -463t-264 -510t-191 -498h-19q-152 0 -254 64zM1020 256q0 225 125 365.5t325 140.5q150 0 220.5 -81t70.5 -187.5t-26.5 -193.5t-77.5 -164t-141.5 -124t-219.5 -47t-202.5 80t-73.5 211zM1303 228.5 q0 -150.5 49 -150.5q53 0 90 154.5t37 284.5t-43 130q-62 0 -97.5 -134t-35.5 -284.5z" />
<glyph unicode="&#x26;" horiz-adv-x="1462" d="M133 408.5q0 115.5 74 218.5q135 184 387 194q-111 29 -181.5 109t-70.5 192q0 154 129 243t298 89t284.5 -73.5t115.5 -196.5q0 -84 -57 -143.5t-137 -59.5t-136.5 48t-56.5 133t74 143q-94 -6 -132 -71t-38 -144.5t49 -135t139 -71.5h3q6 -23 6 -56.5t-15 -72.5h-12 q-135 0 -227 -80t-92 -218.5t65.5 -198.5t170 -60t182 92t100.5 215q-115 -59 -184.5 -59.5t-114.5 23.5t-64 58q4 14 27.5 43t44.5 31q37 -23 78 -22.5t112.5 41t142 89t161 89.5t174.5 41t151.5 -52.5t67.5 -150.5t-69 -166t-181.5 -68t-216.5 82q-4 -207 -160 -365.5 t-381 -158.5q-137 0 -262 57q-152 66 -213 201q-35 76 -35 191.5zM915 1169q0 -23 14.5 -36t34 -13t34 23.5t14.5 61.5t-31 65q-66 -39 -66 -101zM1229 598q106 -80 183 -80t77 74q0 25 -20.5 48.5t-69.5 23.5t-170 -66z" />
<glyph unicode="'" horiz-adv-x="483" d="M186 897l39 598q53 4 78 4q186 0 186 -119q0 -59 -61 -225t-115 -281z" />
<glyph unicode="(" horiz-adv-x="776" d="M156 377q0 203 65.5 407.5t155.5 330.5t186 218t156.5 131t68.5 39l64 -96q-109 -98 -186.5 -264t-114.5 -355.5t-52.5 -353.5t-15.5 -334t23.5 -282.5t83.5 -196.5l-80 -80q-14 8 -37.5 23.5t-85 81t-109 148.5t-85 231.5t-37.5 351.5z" />
<glyph unicode=")" horiz-adv-x="825" d="M6 -362q109 98 186.5 264t114.5 355t52.5 353t15.5 334t-23.5 282.5t-83.5 196.5l80 80q14 -8 38 -23.5t85 -81t108.5 -148.5t85 -231.5t37.5 -351t-65.5 -407.5t-155.5 -331t-186 -218t-156.5 -131t-68.5 -39z" />
<glyph unicode="*" horiz-adv-x="860" d="M72 1122q8 47 51 91t82 44t121 -40.5t143 -92.5q-4 94 -25 127q-16 39 -79 78l-21 12q0 55 24.5 104.5t57.5 61.5q53 0 103.5 -26.5t64.5 -63.5q4 -20 4 -43q0 -137 -41 -254q82 43 98 64q29 43 37 108l4 23q53 14 107.5 14t81.5 -26q18 -45 18 -98.5t-29.5 -83 t-118.5 -55.5t-171 -32q40 -57 69 -69q10 -4 41 -4t94 18q29 -14 49.5 -60.5t20.5 -77t-2 -38.5q-59 -66 -145 -66q-25 0 -43 6q-33 16 -81 97.5t-77 165.5q-57 -82 -57 -113q0 -57 34 -119l11 -20q-25 -37 -74 -68t-90 -31q-37 23 -65.5 66t-28.5 88t61 120t135 130 q-53 16 -77.5 16t-43.5 -4q-37 -8 -86 -57l-16 -17q-39 6 -88 43t-53 82z" />
<glyph unicode="+" horiz-adv-x="1081" d="M125 475q0 117 8 189h305v268q104 29 195 29v-297h330q0 -154 -11 -189h-317v-274q-76 -33 -164 -33h-33v307h-313z" />
<glyph unicode="," horiz-adv-x="522" d="M66 39q0 82 44 162t113 129q131 -25 193.5 -92.5t62.5 -158.5t-90 -239.5t-168 -228.5l-104 63q92 141 110 254z" />
<glyph unicode="-" horiz-adv-x="866" d="M104 494q0 119 15 180h678q0 -113 -15 -180h-678z" />
<glyph unicode="." horiz-adv-x="557" d="M82 150.5q0 78.5 62.5 135t149.5 56.5t133 -46t46 -124t-62.5 -137.5t-149.5 -59.5t-133 48.5t-46 127z" />
<glyph unicode="/" horiz-adv-x="763" d="M-16 -160q303 801 657 1690q70 -17 170 -76q-305 -752 -655 -1683q-102 0 -172 69z" />
<glyph unicode="0" horiz-adv-x="1263" d="M98 520q0 426 201 680t537 254q207 0 315.5 -151.5t108.5 -366.5q0 -293 -107 -526q-57 -127 -140 -222.5t-208 -154t-279 -58.5q-205 0 -316.5 154t-111.5 391zM499.5 420.5q0.5 -287.5 100.5 -287.5q76 0 139.5 166t94 379t30.5 397q0 223 -92 223q-66 0 -121 -88 t-86 -219q-66 -283 -65.5 -570.5z" />
<glyph unicode="1" horiz-adv-x="815" d="M59 1208l363 219q156 27 356 27q23 -55 23 -139t-54.5 -316.5t-109.5 -506t-55 -457.5q-92 -49 -389 -49h-13q0 174 56.5 428t113 480t56.5 333q-131 -84 -222 -176q-39 20 -69.5 60t-42.5 69z" />
<glyph unicode="2" horiz-adv-x="1087" d="M-57 164q0 41 73.5 122t169.5 81q33 0 119 -13q139 117 257 315.5t118 364.5q0 88 -45 137.5t-112.5 49.5t-141.5 -46.5t-133 -134.5l-123 60q55 137 201.5 245.5t342 108.5t306 -100.5t110.5 -247.5q0 -104 -60 -225t-157 -230q-178 -201 -358 -342q215 -66 346 -65 q39 0 63.5 20.5t65.5 93.5l109 -36q-29 -203 -93 -285q-63 -84 -186 -84q-68 0 -162 45t-173 94t-111 53q-80 -72 -156 -121t-102.5 -49t-97 74t-70.5 115z" />
<glyph unicode="3" horiz-adv-x="1050" d="M-16 266q0 104 59 158q25 4 61 4q168 0 269 -82l-27 -211q23 -23 72 -22q92 0 153.5 103t61.5 239.5t-60.5 194t-189.5 57.5l-82 -5l10 132q129 10 201 49q145 80 145 221q0 74 -39.5 113.5t-100 39.5t-129.5 -45t-122 -127l-123 58q63 137 192.5 224t311.5 87t289.5 -88 t107.5 -219t-97 -229.5t-247 -131.5q150 -25 242 -114.5t92 -233.5q0 -197 -170 -330t-399 -133q-180 0 -330.5 79t-150.5 212z" />
<glyph unicode="4" horiz-adv-x="1189" d="M-36 444.5q-1 32.5 24 67.5q455 639 657 907q160 29 412 35q31 -41 30.5 -116.5t-19.5 -182t-62 -294t-64 -292.5q49 -4 93 -4t65 31l33 55l106 -39q-39 -209 -90 -274q-56 -72 -154 -72q-53 0 -102 8q-18 -131 -19 -231q-102 -53 -385 -53h-26q0 109 53 360 q-80 10 -184.5 10t-177 -20.5t-76.5 -20.5q-31 0 -72 46.5t-42 79zM299 606q23 2 79 2t191 -8q125 485 127 621q-178 -220 -397 -615z" />
<glyph unicode="5" horiz-adv-x="1054" d="M10 270q0 88 39 152q41 6 70 6q176 0 274 -98l-33 -203q33 -23 62 -23q94 0 150.5 114t56.5 274.5t-95.5 239.5t-263.5 79l-59 4l-49 66q20 72 62 270.5t67 286.5q63 -6 155 -6l422 20q133 0 228 -43q12 -27 12 -74q0 -92 -51 -209l-19 -39q-125 63 -214 63.5t-386 -13.5 q-25 -90 -41 -189q281 -14 455 -124.5t174 -331t-167 -372t-402 -151.5q-172 0 -309.5 83t-137.5 218z" />
<glyph unicode="6" horiz-adv-x="1198" d="M98 518q0 387 204 661.5t511 274.5q172 0 279.5 -67.5t107.5 -208.5q0 -86 -61 -148q-37 -6 -60 -6q-174 0 -268 92l31 174q-4 15 -41 15q-94 0 -162 -133.5t-102 -350.5q111 47 221 47q170 0 285.5 -100t115.5 -291.5t-165 -346.5t-408 -155q-487 0 -488 543zM496 418 q0 -287 96 -287q78 0 119 107.5t41 228.5t-28 175t-91.5 54t-118.5 -37q-18 -115 -18 -241z" />
<glyph unicode="7" horiz-adv-x="942" d="M109 1317l10 96q100 39 268 39q72 0 211 -15.5t236.5 -15.5t212.5 17l34 -95l-94 -139q-201 -322 -308.5 -654.5t-107.5 -510.5q-25 -18 -143.5 -35.5t-210.5 -17.5h-51q20 166 70 315q94 276 450 807q-227 18 -231 18q-174 0 -297 -65q-49 135 -49 256z" />
<glyph unicode="8" horiz-adv-x="1050" d="M76 289q0 211 332 452q-164 223 -164 369.5t138 244t303 97.5t268.5 -67.5t103.5 -206.5q0 -168 -228 -375q100 -135 147.5 -227.5t47.5 -174.5q0 -190 -166 -308t-385 -118q-170 0 -283.5 88.5t-113.5 225.5zM322 299q0 -82 49 -125t115.5 -43t118.5 38t52 101 q0 96 -153 322q-182 -143 -182 -293zM614 1192q0 -92 111 -250q55 47 91 115.5t36 127t-34 86t-80 27.5t-85 -25.5t-39 -80.5z" />
<glyph unicode="9" horiz-adv-x="1146" d="M47 201l98 100q137 -123 261 -123q258 0 309 410q-117 -39 -228 -39q-188 0 -293.5 110.5t-105.5 284.5q0 219 160 364.5t403 145.5q492 0 492 -573q0 -233 -76 -437t-230.5 -336.5t-357.5 -132.5q-283 0 -432 226zM492 942q-1 -215 124 -215q57 0 113 37q18 115 19 248 q0 287 -103 286q-70 0 -111.5 -111.5t-41.5 -244.5z" />
<glyph unicode=":" horiz-adv-x="698" d="M127 150.5q0 78.5 62.5 135t149.5 56.5t133 -46t46 -124t-62.5 -137.5t-149.5 -59.5t-133 48.5t-46 127zM201 716q0 79 62.5 135t149.5 56t133 -46t46 -124t-62.5 -137t-149.5 -59t-133 48t-46 127z" />
<glyph unicode=";" horiz-adv-x="698" d="M111 39q0 82 44 162t113 129q131 -25 193.5 -92.5t62.5 -158.5t-90 -239.5t-168 -228.5l-104 63q92 141 110 254zM197 716q0 79 62.5 135t149.5 56t133 -46t46 -124t-62.5 -137t-149.5 -59t-133 48t-46 127z" />
<glyph unicode="&#x3c;" horiz-adv-x="913" d="M76 502v131l749 360q33 -96 33 -205l-475 -219l475 -186q0 -106 -31 -205z" />
<glyph unicode="=" horiz-adv-x="1048" d="M168 311q0 109 18 189h732q0 -127 -13 -189h-737zM168 625q0 102 18 188h732q0 -113 -11 -188h-739z" />
<glyph unicode="&#x3e;" horiz-adv-x="880" d="M106 383l474 186l-474 219q0 82 41 201l742 -356v-131l-752 -324q-31 99 -31 205z" />
<glyph unicode="?" horiz-adv-x="833" d="M100 1281q0 42 94.5 107.5t223.5 65.5q195 0 308.5 -99.5t113.5 -252.5q0 -61 -34 -134t-61.5 -112t-82.5 -104q-121 -133 -121 -172q0 -20 43 -35q6 -2 21.5 -8.5t26.5 -9.5t17 -5q-14 -63 -47 -108q-178 0 -285.5 62.5t-107.5 180.5q0 76 78 181q29 37 82 102 q207 254 206 326q0 37 -65 37q-84 -147 -160 -220q-72 10 -161 83t-89 115zM145 139.5q0 73.5 67 126.5t158 53t134 -45t43 -114.5t-60.5 -127t-150.5 -57.5t-140.5 45.5t-50.5 119z" />
<glyph unicode="@" horiz-adv-x="1703" d="M92 623q0 166 63.5 318.5t176 269t282.5 185t369 68.5q317 0 506.5 -161.5t189.5 -413.5q0 -145 -58 -264t-142 -187q-172 -135 -301 -135q-98 0 -150 92q-133 -92 -233.5 -92t-181.5 79t-81 255q0 227 117 363.5t312 136.5q133 0 335 -76q-57 -246 -57 -547 q0 -51 18 -51q25 0 66 41t79 142.5t38 211t-24.5 186t-76.5 142.5q-106 139 -350 139q-143 0 -262 -57.5t-195 -153.5q-158 -197 -157.5 -444.5t116 -407.5t330.5 -160q129 0 240 54q41 -57 57 -119l4 -21q-170 -63 -331.5 -63t-301 56.5t-223.5 150.5q-174 195 -174 463z M821.5 642q0.5 -167 55.5 -167q23 0 52 19.5t42 40.5q23 326 53 450q-25 16 -55 16q-72 0 -110 -96t-37.5 -263z" />
<glyph unicode="A" d="M-59 190q0 190 198 363q96 84 253 140.5t347 66.5q74 186 189 567q2 8 2 29.5t-21 36.5v28q193 33 367 33l156 -8q20 -20 40.5 -91t26.5 -187.5t8 -538.5q225 -88 404 -213q-10 -39 -46 -78t-67 -59l-29 -19q-111 106 -260 191q10 -287 78 -287q23 0 49 10l50 -113 q-147 -86 -310 -86q-258 0 -258 310v293q-121 25 -235 30q-121 -311 -256 -493q-158 -213 -383 -213q-119 0 -211 79.5t-92 208.5zM170 203q0 -51 24.5 -86t73.5 -35q72 0 148 87t150.5 226.5t107.5 210.5q-242 -29 -373 -153.5t-131 -249.5zM936 758q80 -6 182 -23v90 q0 336 -18 414q-2 2 -12.5 2t-12.5 -2q-4 -86 -139 -481z" />
<glyph unicode="B" horiz-adv-x="1445" d="M-88 1012.5q0 142.5 121 255.5q229 211 682 211q663 0 663 -331q0 -275 -346 -384q123 -12 215 -90q197 55 369 69q29 -57 29 -109t-13 -99q-47 6 -113.5 6t-168.5 -17q22 -58 22 -125v-6q0 -203 -127 -350t-321 -147q-147 0 -224 72.5t-77 190t85 233.5t234 181 q-35 115 -172 115h-31q-6 25 -6 58.5t15 91.5q18 0 70 10t110.5 86t58.5 188q0 197 -338 197q-133 0 -263 -34t-220 -98.5t-90 -144.5q0 -90 123 -114q2 -14 2 -39q0 -94 -37 -170q-90 8 -171 79.5t-81 214zM123 -6q10 127 115.5 504.5t105.5 498.5q0 37 -9 55.5t-40 53.5 v27q41 25 133 44t162 19q113 0 149 -10q13 -21 13 -85q0 -65 -106 -469q-106 -406 -124 -609q-147 -35 -332 -35q-49 0 -67 6zM776 197q0 -115 80 -115q53 0 88 83t35 202q0 33 -2 59q-84 -27 -142.5 -97.5t-58.5 -131.5z" />
<glyph unicode="C" horiz-adv-x="1163" d="M100 533.5q0 250.5 94.5 456.5t270.5 335t389 129q61 0 131 -18q147 94 293 94q74 0 138.5 -21.5t94.5 -52.5q-16 -78 -45 -133l-8 -18q-95 71 -204 71h-3q-57 0 -125 -24q95 -103 95 -287q-1 -182 -97 -339t-250 -157q-96 0 -157.5 78t-61.5 199q0 246 174 450 q-139 -12 -232 -213.5t-93 -443.5q0 -440 219 -440q164 0 367 217l96 -82q-27 -45 -92.5 -116t-130 -118t-166 -86t-207.5 -39q-219 0 -354.5 154t-135.5 404.5zM799 852q0 -61 22.5 -94t61.5 -33q61 0 101 101.5t40 232.5t-55 190q-170 -166 -170 -397z" />
<glyph unicode="D" horiz-adv-x="1687" d="M49 169q0 85 70.5 137t160 52t177.5 -34q53 150 88 385t35 291.5t-45 105.5v29q135 61 333 61l107 -8q12 -23 12 -88q-4 -217 -89 -464t-220 -421q130 -66 219 -66l1 1q89 0 167 82.5t123 205.5q90 252 90 464t-113.5 314.5t-340 102.5t-414 -117t-187.5 -272 q0 -66 31 -96.5t88 -49.5q-2 -102 -55 -209q-88 16 -161 96.5t-73 217.5q0 254 252 422t607.5 168t562 -148.5t206.5 -468.5q0 -211 -87 -413.5t-251.5 -339t-367.5 -136.5t-408 125q-143 -123 -286 -123q-100 0 -166 54.5t-66 139.5zM227 184.5q0 -22.5 16.5 -39 t47.5 -16.5q61 0 110 76q-55 33 -93 33t-59.5 -15.5t-21.5 -38z" />
<glyph unicode="E" horiz-adv-x="1148" d="M106 365q0 117 77 212t204 158q-113 129 -113 289q0 203 158 316.5t365 113.5q78 0 141 -18q141 94 302 94t230 -84q-4 -72 -45 -119l-14 -16q-76 82 -219 82q-59 0 -121 -23q86 -74 86 -181.5t-62.5 -193.5t-154.5 -86t-146.5 57.5t-54.5 151.5t58 176q-76 -20 -125 -95 t-49 -187.5t32 -190.5q72 10 151 10t145.5 -39.5t66.5 -111.5t-59.5 -122t-158 -50t-231.5 78q-70 -91 -70 -186q0 -96 56 -150q55 -53 145 -53q186 0 363 192l88 -74q-41 -66 -107.5 -131t-128 -106t-156.5 -72t-196 -31q-190 0 -323.5 95.5t-133.5 294.5zM725 707 q45 -61 105 -61q1 0 1 -1q58 0 58 37q0 41 -80 41q-41 0 -84 -16zM874 1126q0 -84 56 -84q29 0 47 32t18 81q0 90 -61 127q-60 -70 -60 -156z" />
<glyph unicode="F" horiz-adv-x="1269" d="M-27 174q0 160 142.5 302t361.5 220q8 86 8 187.5t-8 165.5q-25 -4 -74 -5q-145 0 -223 60.5t-78 148.5t81 157t218 69q213 0 340 -164q33 14 144 74q264 145 378.5 145t176 -110.5t61.5 -249.5q-8 -16 -74 -54q-96 82 -239.5 82t-358.5 -57q41 -123 41 -297 q0 -12 -1 -34.5t-1 -35.5q92 12 184 12q5 0 9 1q85 0 149 -9q2 -8 2 -39.5t-16 -86t-35 -78.5q-117 38 -264 38q-31 0 -47 -2q-51 -305 -216 -511.5t-370 -206.5q-127 0 -209 78.5t-82 199.5zM133 197q0 -51 26.5 -76t61.5 -25q72 0 139.5 111.5t98.5 329.5 q-152 -59 -239 -155.5t-87 -184.5zM268 1254.5q0 -25.5 30 -50t75 -24.5t78 8q-39 127 -119 127q-33 0 -48.5 -17.5t-15.5 -43z" />
<glyph unicode="G" horiz-adv-x="1226" d="M100 610q0 160 56.5 313.5t153 270.5t234.5 187.5t290 70.5q72 0 129 -18q141 94 292 94q76 0 140.5 -21.5t95.5 -52.5q-16 -78 -45 -133l-8 -18q-95 71 -204 71h-3q-66 0 -127 -24q96 -98 96 -283.5t-96 -341.5t-248 -156q-102 0 -161.5 79t-59.5 212q0 227 174 434 q-135 -14 -220 -187t-85 -400.5t58.5 -313.5t135 -86t149.5 54.5t122 144.5l149 -31q-57 -436 -207 -688q35 -18 121 -64.5t132 -69t118 -52.5q133 -57 258 -58l109 6q61 -70 90 -135q-39 -74 -129 -132t-199 -58q-158 0 -334 141q-80 63 -172 151.5t-119 112.5 q-137 -121 -305 -121q-109 0 -179.5 55.5t-70.5 143.5t73 148.5t198 60.5q74 0 153 -22q31 92 45 229q-76 -41 -172 -41q-190 0 -309 144.5t-119 383.5zM389 -266.5q0 -26.5 21.5 -41t48.5 -14.5q84 0 141 93q-54 31 -104 31h-2q-50 -1 -77.5 -21.5t-27.5 -47zM778 868 q0 -145 76 -145q68 0 109 102.5t41 231.5t-56 190q-78 -76 -124 -179t-46 -200z" />
<glyph unicode="H" horiz-adv-x="1615" d="M33 215q0 129 127 275.5t383 244.5q20 123 20 251t-18.5 175t-73.5 47q-86 0 -256 -121l-78 107q262 233 504 233q168 0 233.5 -115.5t65.5 -322.5q0 -76 -10 -172q150 20 231 27q68 334 68 518l-2 29q201 63 399 63q8 -12 8 -59q0 -117 -96 -547q139 -8 279 -37v-25 q0 -51 -6.5 -70.5t-8.5 -29.5t-10 -23.5t-10 -19.5q-8 -20 -23 -35q-143 41 -260 58q-61 -293 -61 -414q0 -35 6 -48.5t35.5 -13.5t85.5 21l45 -105q-209 -131 -371 -131q-203 0 -203 203q0 104 90 504q-109 -6 -219 -25q-59 -299 -200 -505q-72 -106 -171.5 -167 t-223.5 -61t-201.5 81t-77.5 210zM190 233q0 -43 26 -75.5t67 -32.5q76 0 141 125t100 321q-152 -55 -243 -155.5t-91 -182.5z" />
<glyph unicode="I" horiz-adv-x="899" d="M14 215q0 129 127 275.5t383 244.5q20 123 20 251q0 3 1 7q-1 123 -19 168q-18 47 -73 47q-86 0 -256 -121l-78 107q262 233 504 233q168 0 233.5 -115.5t65.5 -309t-40 -378t-115 -342t-195.5 -258t-261 -100.5t-218.5 81t-78 210zM172 233q0 -43 25.5 -75.5t66.5 -32.5 q76 0 141.5 125t100.5 321q-152 -55 -243 -155.5t-91 -182.5z" />
<glyph unicode="J" horiz-adv-x="888" d="M-162 -90q0 133 127 277.5t393 248.5q18 68 47 269.5t29 309t-20.5 149.5t-71.5 42q-96 0 -258 -119l-80 107q266 233 516 233q154 0 222.5 -109.5t68.5 -353t-35 -440.5q135 12 281 13q6 -25 6 -72t-41 -135q-84 14 -149.5 14t-135.5 -4q-88 -324 -253 -522.5 t-361 -198.5q-127 0 -206 79t-79 212zM-4 -74q0 -49 26.5 -77.5t63.5 -28.5q78 0 145.5 126t102.5 322q-152 -53 -245 -151.5t-93 -190.5z" />
<glyph unicode="K" horiz-adv-x="1390" d="M90 -6q10 129 129 631t119 637q0 33 -9.5 50t-35.5 48v29q41 25 132 44t161 19q92 0 147 -10q12 -23 12 -64q0 -162 -119.5 -664.5t-136.5 -690.5q-152 -35 -335 -35q-45 0 -64 6zM668 687q0 52 7 75.5t35.5 40t72.5 16.5t77 -16q106 86 172 178q53 96 53 221 q0 59 -12 123q82 49 167 77t128 32l43 4q33 -14 54.5 -54t21.5 -77q0 -158 -132 -315.5t-347 -289.5q47 -53 114.5 -225t100 -241.5t50 -106.5t50.5 -98q57 -109 100 -109q23 0 39 8l39 -108q-111 -82 -268.5 -82t-222 64.5t-111.5 271.5q-2 8 -43 217t-68 287h-14 q-53 0 -90 43q-16 12 -16 64z" />
<glyph unicode="L" horiz-adv-x="1036" d="M-53 164q0 84 65.5 143.5t148.5 59.5t156 -23q31 131 43 293q-287 66 -286 336l12 110q20 2 77.5 2t110.5 -26q-12 -55 -12 -86q0 -162 109 -180q8 168 14 231q23 221 155 325.5t307 104.5t267 -85t92 -225t-154.5 -294t-381.5 -215q-43 -197 -107 -412 q158 -109 228.5 -150.5t137 -69.5t137.5 -28t128 17q45 -63 68 -125q-39 -82 -121 -144.5t-184.5 -62.5t-201 77t-220.5 212l-89 100q-115 -90 -239.5 -90t-192 60.5t-67.5 144.5zM111 188q0 -53 54 -53t111 82q-47 35 -85.5 35t-59 -20.5t-20.5 -43.5zM707 811 q145 45 221 142.5t76 195.5q0 51 -21.5 82t-58.5 31q-70 0 -111 -73t-76 -231z" />
<glyph unicode="M" horiz-adv-x="2228" d="M35 241.5q0 153.5 133 362.5t383 426q0 102 -17.5 141t-54.5 39q-88 0 -264 -127l-82 103q96 92 240.5 166.5t279.5 74.5q182 0 240 -159q256 186 426 186t225 -137q205 137 359 137q117 0 190.5 -64.5t73.5 -186.5t-89 -468t-89 -491q0 -53 22 -54q43 0 105 25l43 -104 q-190 -135 -377 -136q-88 0 -141.5 53.5t-53.5 157t86 450.5t86 448.5t-86 101.5q-47 0 -112 -39q-10 -82 -58 -283q-133 -555 -143 -837q-104 -35 -381 -35h-35q0 123 105.5 559t105.5 510q0 125 -76 125q-43 0 -153 -76q4 -74 4 -117q0 -295 -81 -540.5t-222.5 -387 t-311.5 -141.5q-127 0 -203.5 82t-76.5 235.5zM195 250q0 -55 24.5 -90t63.5 -35q98 0 177 201.5t93 511.5q-150 -127 -254 -298t-104 -290z" />
<glyph unicode="N" horiz-adv-x="1673" d="M35 241.5q0 153.5 133 362.5t383 426q0 102 -17.5 141t-54.5 39q-88 0 -264 -127l-82 103q96 92 240.5 166.5t279.5 74.5q193 0 248 -184q92 68 139 98.5t146.5 71.5t203 41t175 -64.5t71.5 -183.5t-88 -470t-88 -486q0 -59 31 -60q35 0 96 25l43 -104 q-188 -135 -370 -136q-96 0 -148.5 53.5t-52.5 156t85 451.5t85 448.5t-76 99.5t-227 -103q4 -57 4 -88q0 -295 -81 -540.5t-222.5 -387t-311.5 -141.5q-127 0 -203.5 82t-76.5 235.5zM195 250q0 -55 24.5 -90t63.5 -35q98 0 177 201.5t93 511.5q-150 -127 -254 -298 t-104 -290z" />
<glyph unicode="O" horiz-adv-x="1351" d="M66 572.5q0 279.5 137 514t397 365.5l70 -111q-119 -158 -160 -338t-41 -434q0 -442 170 -442q86 0 153.5 93t102.5 243q-315 55 -315 414q0 219 113.5 372.5t286.5 153.5t269.5 -138.5t96.5 -357.5q0 -119 -48 -291q96 12 193 66l35 18q39 -61 45 -139l2 -29 q-45 -27 -141.5 -55t-184.5 -35q-92 -211 -259 -339t-414.5 -128t-377.5 159t-130 438.5zM745 901q0 -119 48.5 -190.5t130.5 -81.5q27 172 27 363.5t-66 191.5q-47 0 -93.5 -82t-46.5 -201z" />
<glyph unicode="P" horiz-adv-x="1277" d="M-88 1016q0 215 232.5 339t563 124t503.5 -101.5t173 -307.5t-151.5 -363.5t-413.5 -157.5q-113 0 -188 31q-92 -365 -109 -557q-147 -35 -332 -35q-49 0 -67 6q10 127 115.5 503.5t105.5 495.5q0 39 -9 57.5t-40 53.5v29q41 25 133 44t162 19q113 0 149 -10 q13 -21 13 -80q0 -61 -90 -408q53 -12 110 -12q113 0 167 113.5t54 257.5q0 262 -327 262q-250 0 -420 -79t-170 -193q0 -88 123 -113q2 -16 2 -39q0 -113 -37 -170q-96 12 -174 82t-78 209z" />
<glyph unicode="Q" horiz-adv-x="1368" d="M59 -157q0 85 71 146.5t198 61.5t293 -80q150 139 246 373t96 553q0 395 -162 395q-90 0 -162 -108.5t-109.5 -275.5t-37.5 -363.5t38 -196.5q47 0 81 103.5t34 253.5q0 6 -6 98q76 25 116 25h2q40 -1 52 -1q4 -37 4 -71q0 -272 -102.5 -440.5t-302.5 -168.5 q-141 0 -220 115t-79 333t93 415.5t269 319.5t397 122q141 0 242.5 -50t155.5 -136q100 -162 100 -383q0 -297 -152.5 -570.5t-386.5 -453.5q106 -59 170 -91t161 -63t181 -31l64 7q43 -53 67 -136q-39 -78 -113.5 -134t-170.5 -56q-145 0 -367 205q-86 80 -182 176 q-178 -92 -308 -92t-200 57t-70 142zM223 -129q0 -57 79 -57t179 53q-96 70 -168 70q-41 0 -65.5 -19.5t-24.5 -46.5z" />
<glyph unicode="R" horiz-adv-x="1378" d="M-92 1016q0 213 236.5 338t603.5 125q293 0 462.5 -102.5t169.5 -299.5q0 -139 -107.5 -249.5t-258.5 -182.5q74 -72 205 -397.5t204 -325.5q14 0 39 8l39 -108q-121 -82 -271.5 -82t-217 65.5t-113.5 270.5q-8 35 -27 129q-47 223 -75 317h-35q-53 0 -90 43 q-16 13 -16 65q0 3 -1 6q-1 48 7 70q8 24 36.5 40t71.5 16t76 -17q147 115 147 322q0 131 -77.5 191.5t-241.5 60.5q-254 0 -428 -79t-174 -193q0 -47 40 -76t83 -37q2 -18 2 -45q0 -111 -37 -164q-96 12 -174 84t-78 207zM88 -6q10 127 115.5 505.5t105.5 497.5 q0 39 -9 57.5t-40 53.5v25q41 25 133 44t162 19q113 0 150 -10q12 -20 12 -84t-105.5 -470.5t-124.5 -608.5q-147 -35 -331 -35q-49 0 -68 6z" />
<glyph unicode="S" horiz-adv-x="1292" d="M-76 1053q0 82 23 149l8 25q111 -2 170 -25q-35 -76 -35 -156.5t64.5 -135t154.5 -54.5q31 0 62 6q-84 154 -84 260q0 154 136 243t309 89t267.5 -72.5t94.5 -180t-78 -199t-174 -148.5q125 -166 182 -342q145 -6 365 -72q-6 -96 -78 -194q-104 78 -258 102 q-2 -160 -133.5 -274.5t-301.5 -114.5q-131 0 -218 62.5t-87 172t83 181t208 108.5q-43 76 -153 244q-76 -14 -134 -14q-184 0 -288.5 92t-104.5 248zM517.5 159.5q23.5 -28.5 63.5 -28.5t65.5 45t25.5 90t-13 94q-165 -29 -165 -132q0 -40 23.5 -68.5zM641 1196 q0 -68 115 -211q63 29 105 87t42 113.5t-37 83t-94 27.5t-94 -27.5t-37 -72.5z" />
<glyph unicode="T" horiz-adv-x="1320" d="M-68 330q160 244 406 338q102 250 367 510q-131 53 -267.5 53t-253.5 -84q-68 33 -78 53q0 129 63.5 231.5t188.5 102.5q127 0 400 -141q100 -51 131 -60q88 63 191.5 104.5t183 41.5t142 -44t62.5 -136.5t-66.5 -161t-184.5 -68.5q-61 0 -203 37q-147 -160 -246 -377 q166 -4 304 -98t138 -257t-129 -289t-340 -126t-329 127q-127 135 -127 324q0 23 2 57q-104 -88 -195 -272q-117 53 -160 135zM682 381.5q0 -98.5 46 -165t115.5 -66.5t115 71.5t45.5 161.5t-71 146.5t-165 56.5q-20 0 -57 -4q-29 -102 -29 -200.5zM1118 1229q35 -25 94 -25 q111 0 111 74q0 45 -49 45q-74 0 -156 -94z" />
<glyph unicode="U" horiz-adv-x="1554" d="M6 1028q0 125 87 226.5t203 150.5t247 49t219 -66.5t88 -197.5t-108.5 -464t-108.5 -417t70.5 -84t185.5 107q8 115 37 256q90 457 219 661.5t301 204.5q109 0 163 -56.5t54 -148.5q0 -162 -113.5 -369.5t-269.5 -392.5q-4 -82 -4 -146.5t10 -119.5t47 -55q31 0 80 16 l37 -106q-158 -100 -303 -101q-203 0 -248 175q-233 -176 -432 -177q-111 0 -173.5 65.5t-62.5 170t103 442.5q-328 154 -328 377zM172 1053q0 -162 207 -242q70 221 70 354q0 104 -76 105q-70 0 -135.5 -65.5t-65.5 -151.5zM1311 725q76 119 136 282.5t60 219t-20 55.5 q-43 0 -92 -168t-84 -389z" />
<glyph unicode="V" horiz-adv-x="1409" d="M-23 999q0 193 174.5 324t370.5 131q139 0 229.5 -89t90.5 -275q0 -76 -29 -289q53 16 125 59q61 -72 63 -162q-78 -39 -210 -77q-25 -186 -25 -280.5t33 -94.5q51 0 129 92t147.5 254t85.5 326q0 201 -174 374q45 88 118 160t122 100l49 27q92 0 158.5 -105.5t66.5 -256 t-86 -373.5t-213 -413.5t-286.5 -323t-301 -132.5t-195.5 82t-54 228q0 72 22 319q-188 10 -299 128t-111 267zM143 999.5q0 -104.5 75 -167t188 -62.5q28 225 28 309q0 184 -96 185q-66 0 -130.5 -80t-64.5 -184.5z" />
<glyph unicode="W" horiz-adv-x="2058" d="M-20 999q0 193 174 324t370 131q139 0 228.5 -89t89.5 -275q0 -117 -14.5 -342.5t-14.5 -362.5t39 -137q31 0 87 50t99 114q4 59 19 184q31 264 31 456v6q0 194 -46 310q242 80 433 82q23 -78 23 -248v-7q0 -175 -31 -453.5t-31 -388t30.5 -109.5t83 66.5t105.5 168 t98 237.5t57 261q0 201 -174 375q45 88 118 159.5t122 98.5l49 28q92 0 158.5 -105.5t66.5 -236.5q0 -231 -135 -543.5t-341 -545t-382 -232.5q-221 0 -252 207q-86 -96 -184 -151.5t-200.5 -55.5t-173 71t-70.5 226q0 109 10 334q-193 10 -317.5 129t-124.5 264zM145 998.5 q0 -103.5 84 -166t201 -62.5q10 102 10 218t-18.5 194t-80.5 78t-129 -79t-67 -182.5z" />
<glyph unicode="X" horiz-adv-x="1378" d="M-12 1124q0 152 124 253.5t281 101.5q94 0 180 -44t132.5 -127t144.5 -352q166 215 311 463q23 35 64 35q104 0 184 -113q-66 -111 -147.5 -205t-109.5 -124.5t-121 -129t-113 -120.5q131 -358 198 -483t135 -125q18 0 66 14l43 -92q-63 -45 -153.5 -73t-166.5 -28 q-188 0 -272 148q-41 72 -135 346q-160 -203 -320 -459q-25 -35 -61.5 -35t-95 29t-90.5 82q88 135 166.5 228.5t111.5 131.5q63 72 215 236q-27 80 -80 223q-106 -53 -221 -53t-192.5 77t-77.5 195zM168 1117q0 -48 38 -87t101.5 -39t118.5 43l-23 51q-37 78 -68.5 111 t-73.5 33t-67.5 -32t-25.5 -80z" />
<glyph unicode="Y" horiz-adv-x="1603" d="M16 1032q0 123 86 222.5t207 149.5t248 50t219 -66.5t92 -187.5t-97 -425t-97 -355q0 -66 66.5 -66t179.5 76l20 109q57 319 86 410t54.5 165t51 116t61.5 91t75 74q94 59 201.5 59t165 -58.5t57.5 -154.5q0 -139 -106.5 -345t-266.5 -359q-53 -258 -115 -428 q172 0 340 -27q0 -92 -61 -197q-174 45 -350 54q-195 -397 -543 -398q-129 0 -204 51.5t-75 143.5q0 117 129 213t398 153l32 115q-211 -119 -381 -119q-100 0 -158.5 51.5t-58.5 141.5t78 360q-334 154 -334 381zM182 1051q0 -156 211 -240q74 233 74 346t-76 113 t-142.5 -61.5t-66.5 -157.5zM522 -227q0 -41 55.5 -41t115 58t104.5 151q-123 -23 -199 -73t-76 -95zM1374 811q59 90 108 224q50 133 50 189q0 58 -21 58q-33 0 -59 -98q-41 -158 -78 -373z" />
<glyph unicode="Z" horiz-adv-x="1177" d="M-72 158q0 90 89 160.5t223 70.5q72 0 141 -20q139 172 245.5 375.5t133.5 359.5q-74 16 -78 18q-222 -243 -447 -243h-2q-129 0 -216 82.5t-87 217t112 229.5t294 95q86 0 338 -51q43 113 55 285q37 6 77 6t95 -25q-23 -154 -78 -295q94 -16 168 -16t137 23 q29 -43 29 -89q0 -172 -160.5 -483t-365.5 -586q72 -41 176 -77.5t178 -36.5t105 43q90 -14 145 -78q-43 -150 -130 -218.5t-183 -68.5q-57 0 -129 29t-112 53.5t-128 88t-102 73.5q-164 -121 -277 -121t-179.5 54.5t-66.5 144.5zM90 176q0 -41 62.5 -41t126.5 78 q-39 31 -86 31q-103 0 -103 -68zM137 1117q0 -44 28 -70.5t79 -26.5q160 0 288 149q-163 51 -257 51q-70 0 -103 -28q-35 -31 -35 -75z" />
<glyph unicode="[" horiz-adv-x="806" d="M129 -346q123 1206 203 1759q4 33 31.5 61.5t58.5 28.5q174 0 432 -43l-8 -121q-199 -4 -207 -43q-10 -49 -49 -314t-53.5 -393t-31 -269.5t-26.5 -223.5q-24 -227 -24 -368q0 -18 135 -62l43 -14l-17 -109q-29 -2 -53 -2q-233 0 -395 29q-35 47 -39 84z" />
<glyph unicode="\" horiz-adv-x="774" d="M18 1454q86 55 170 76q354 -889 658 -1690q-70 -70 -172 -69q-351 931 -656 1683z" />
<glyph unicode="]" horiz-adv-x="872" d="M31 -416l8 121q199 4 207 43q10 49 49 314.5t53 393.5t30.5 269t27.5 223q24 228 24 369q0 18 -133 61l-45 15l16 108q29 2 54 2q233 0 395 -28q35 -47 39 -84q-123 -1206 -203 -1760q-4 -33 -31.5 -61.5t-58.5 -28.5q-174 0 -432 43z" />
<glyph unicode="^" horiz-adv-x="964" d="M37 590q322 725 352 790h195q45 -104 108 -254q136 -313 236 -530q-49 -14 -118 -14t-151 8l-174 481l-180 -481q-82 -8 -151 -8z" />
<glyph unicode="_" horiz-adv-x="1257" d="M100 0q0 121 6 166h1053q0 -133 -6 -166h-1053z" />
<glyph unicode="`" horiz-adv-x="1302" d="M315 1208q74 217 156 217q94 0 530 -305l-53 -98q-299 106 -633 186z" />
<glyph unicode="a" horiz-adv-x="1087" d="M59 324q0 231 119 407t314 176q106 0 217 -59q16 37 26 53q147 0 326 -72q-43 -133 -74 -316t-31 -256t23 -73l102 29l37 -102q-66 -51 -167 -93.5t-179 -42.5q-133 0 -168 115q-162 -115 -285.5 -115t-191.5 90.5t-68 258.5zM444 349.5q0 -103.5 14.5 -130t53.5 -26.5 t76 30q8 238 78 498q-31 18 -71 18t-71.5 -45t-48.5 -112q-31 -129 -31 -232.5z" />
<glyph unicode="b" horiz-adv-x="1064" d="M51 53q0 150 120 641.5t120 667.5q0 45 -4 86q199 55 370 55q13 -20 13 -86q0 -150 -101 -581q118 72 218 72h1q100 0 176 -84.5t76 -306.5t-121.5 -382t-300.5 -160q-106 0 -210 58q-205 -49 -347 -49q-10 6 -10 69zM430 170q37 -18 68 -18q70 0 113.5 149.5t43.5 275 t-49 125.5q-29 0 -74 -22q-88 -379 -102 -510z" />
<glyph unicode="c" horiz-adv-x="868" d="M41 367q0 238 146.5 389t383.5 151q154 0 242 -62.5t88 -157.5t-57 -165q-68 0 -147 25.5t-126 64.5l31 154q-12 4 -24 4q-63 0 -108.5 -112.5t-45.5 -227.5q0 -252 145 -252q92 0 209 88l66 -90q-86 -94 -206 -147.5t-239 -53.5q-160 0 -259 97.5t-99 294.5z" />
<glyph unicode="d" horiz-adv-x="1110" d="M59 328q0 244 124 411.5t321 167.5q96 0 192 -45q76 346 76 498q0 45 -6 90q190 53 367 53q16 -27 16 -126t-93 -533t-93 -582q0 -78 26 -78l88 29l37 -104q-180 -134 -342 -134q-127 0 -164 99q-156 -98 -278 -98q-1 0 -1 -1q-120 0 -195 83t-75 270zM504 182 q37 0 82 25v2q8 166 80 522q-41 12 -60 12q-43 0 -75.5 -43t-51.5 -110q-35 -137 -35 -270q0 -138 60 -138z" />
<glyph unicode="e" horiz-adv-x="892" d="M41 371q0 254 154.5 395t382.5 141q158 0 253 -68.5t95 -183.5q0 -84 -51.5 -149.5t-124.5 -99.5q-156 -70 -271 -84l-51 -7q23 -135 135 -135q49 0 108.5 21.5t94.5 44.5l35 20l65 -88l-22 -22q-12 -12 -58.5 -48t-96.5 -63t-128 -48.5t-155 -21.5q-174 0 -269.5 101.5 t-95.5 294.5zM420 451q59 8 118.5 97t59.5 149.5t-35 60.5q-51 0 -94 -80t-49 -227z" />
<glyph unicode="f" horiz-adv-x="667" d="M18 -252q78 262 111 453.5t66 529.5l-136 -14q-8 39 -8 79t10 87h148q31 305 86 411q72 141 172 181q60 27 152 27h3q95 -1 159.5 -55t64.5 -145.5t-84 -210t-203 -208.5h207q0 -92 -33 -158l-180 14q-18 -346 -80.5 -661.5t-124.5 -394.5q-102 2 -198.5 23.5 t-131.5 41.5zM565 1047q72 57 116 125.5t44 122t-51 53.5q-86 0 -109 -301z" />
<glyph unicode="g" horiz-adv-x="1030" d="M59 365q0 236 128 389t307 153q86 0 194 -47q127 39 289 39h35q10 -20 10 -91t-25.5 -277.5t-56.5 -346.5q-66 -297 -204 -470t-347 -173q-102 0 -166.5 45t-64.5 115t33.5 116t97.5 77q109 53 266 88l20 106q-143 -78 -254.5 -78t-186.5 89t-75 266zM303 -260 q4 -47 51 -47q39 0 89.5 39t82.5 127q-223 -39 -223 -119zM440 352.5q0 -143.5 68 -143.5q29 0 84 29q16 166 53 491q-30 12 -57 12q-72 0 -110 -122.5t-38 -266z" />
<glyph unicode="h" horiz-adv-x="1114" d="M51 49q0 127 122 629t122 676q0 53 -8 94q199 55 372 55q15 -34 15 -108q0 -143 -105 -590q176 100 277.5 100t151 -54t49.5 -135t-45.5 -254t-45.5 -226.5t17 -53.5l106 29l37 -102q-63 -47 -175 -90.5t-198 -43.5q-165 0 -165 187q0 88 43 256t43 212t-31 44 q-43 0 -105 -41q-92 -391 -92 -545l2 -49q-209 -55 -375 -55q-12 6 -12 65z" />
<glyph unicode="i" horiz-adv-x="614" d="M68 159q0 89 50 272t50 233q0 76 -53 143l-17 22l6 35q106 33 414 33q33 -37 33 -128t-51 -280.5t-51 -247t22.5 -57.5t81.5 21l18 8l37 -102q-70 -53 -173 -94.5t-187 -41.5t-132 47.5t-48 136.5zM201 1232q0 77 64.5 129t156.5 52t143 -43t51 -121t-62 -135t-155.5 -57 t-145.5 49t-52 126z" />
<glyph unicode="j" horiz-adv-x="610" d="M-291 -315l55 88q66 -39 137.5 -39t123 95t104.5 395t53 444q0 31 -20.5 70.5t-40.5 64.5l-21 24l4 33q147 37 431 37q31 -34 31 -133q0 -102 -38 -340q-36 -236 -82 -410q-124 -473 -419 -473q-178 0 -318 144zM233 1232q0 77 64.5 129t157 52t143.5 -43t51 -121 t-62.5 -135t-155.5 -57t-145.5 49t-52.5 126z" />
<glyph unicode="k" horiz-adv-x="1101" d="M51 31q0 106 121 623.5t121 699.5q0 53 -10 94q203 55 368 55q20 -25 21 -108q0 -150 -92 -574q164 86 289.5 86t192 -51t66.5 -143q0 -178 -264 -254q66 -283 127 -283l99 27l45 -101q-51 -41 -158 -84t-205 -43t-149.5 74t-65.5 192.5t-14 266.5q98 25 155.5 71 t57.5 92t-49 46q-39 0 -91.5 -22.5t-76.5 -43.5q-111 -467 -111 -624q-158 -35 -375 -35q-2 16 -2 39z" />
<glyph unicode="l" horiz-adv-x="608" d="M51 170q0 94 103.5 525t103.5 640q0 45 -12 115q193 53 372 53q18 -33 19 -106q0 -139 -103.5 -607t-103.5 -540t25 -72q20 0 88 27l22 10l49 -100q-65 -58 -171.5 -99t-193.5 -41t-142.5 50.5t-55.5 144.5z" />
<glyph unicode="m" horiz-adv-x="1617" d="M72 -12q0 145 56 406t56 290t-18.5 63.5t-36.5 53.5l-18 18l4 31q119 39 420 39q23 -47 30 -101q178 117 301 117q66 0 112 -34.5t64 -92.5q170 127 312 127q92 0 144 -56t52 -135t-45 -255t-45 -226.5t17 -50.5l106 27l37 -103q-61 -49 -169 -90t-194 -41 q-176 0 -176 179q0 76 43 258t43 222t-30 40q-43 0 -93 -35q-6 -31 -32 -147q-57 -262 -58 -465q-94 -35 -366 -35q-6 23 -6 106.5t45 296.5t45 246t-29 33q-35 0 -90 -33q-6 -35 -39 -178q-70 -301 -70 -438q-96 -37 -321 -37h-51z" />
<glyph unicode="n" horiz-adv-x="1134" d="M72 -12q0 127 58 385t58 297t-18 75.5t-37 55.5l-18 18l4 31q121 39 422 39q20 -47 28 -98q184 114 312 114h2q86 0 135 -56t49 -135t-45 -253t-45 -226.5t14 -52.5l109 29l37 -102q-66 -49 -171.5 -91.5t-193.5 -42.5q-174 0 -174 181q0 78 43 254t43 220t-29 44 q-37 0 -98 -41q-8 -37 -41 -178q-66 -297 -65 -428q-101 -39 -345 -39h-34z" />
<glyph unicode="o" horiz-adv-x="913" d="M41 362q0 225 133 382t350 157l92 -8q49 14 93 14q102 0 146 -69.5t50 -198.5q86 4 164 27l29 8q14 -14 20 -86l2 -23q-92 -47 -225 -73q-45 -217 -178 -367t-332 -150q-160 0 -252 101.5t-92 285.5zM426 371q0 -190 96 -191q68 0 138.5 86t97.5 209q-209 0 -209 201 q0 35 6 72q-20 0 -31 -7q-35 -37 -66.5 -148t-31.5 -222z" />
<glyph unicode="p" horiz-adv-x="1048" d="M-20 -346q0 86 78.5 467t78.5 477t-18.5 146.5t-36.5 64.5l-19 14l5 31q123 39 415 39q16 -31 27 -80q131 94 247.5 94t191.5 -89t75 -302t-111.5 -377t-326.5 -164q-94 0 -185 37q-47 -231 -47 -407q-147 -54 -358 -64q-16 27 -16 113zM432 158q35 -11 60 -11 q55 0 94 82q69 141 69 343v6q0 120 -58 120h-1q-31 0 -82 -22q-12 -172 -82 -518z" />
<glyph unicode="q" horiz-adv-x="1060" d="M59 322q0 250 128 417.5t307 167.5q111 0 194 -47q174 43 332 43q16 -23 16 -86q0 -129 -105.5 -589.5t-105.5 -622.5q-137 -64 -352 -64h-22q-2 18 -2 62q0 115 75 438q-111 -66 -218 -66t-177 83t-70 264zM444 291q0 -57 10.5 -82t42 -25t66.5 17q88 371 92 528 q-30 10 -53 10q-76 0 -117 -147.5t-41 -300.5z" />
<glyph unicode="r" horiz-adv-x="802" d="M78 77q0 60 50 313t50 287t-18.5 69.5t-36.5 54.5l-19 18l5 31q123 39 407 39q27 -51 33 -121q125 139 221 139q125 0 137 -211q-4 -4 -10 -13t-28.5 -31.5t-47.5 -41.5q-70 -47 -147 -55q-2 0 -27.5 45t-43 45t-64.5 -37q-6 -37 -23.5 -125t-28.5 -145 q-30 -147 -30 -248v-6l2 -61q-91 -35 -359 -35h-16q-6 29 -6 89z" />
<glyph unicode="s" horiz-adv-x="788" d="M0 130q0 48 62.5 123t127.5 87q94 -51 170 -227q59 0 60 39q0 29 -16.5 53t-24.5 38.5t-28.5 40t-31.5 38.5q-51 61 -92 112q-98 123 -98 216t59 153q102 104 301 104q125 0 199 -48t74 -143t-113 -218q105 -122 105 -222q0 -127 -118 -214t-275.5 -87t-259 53.5 t-101.5 101.5zM475 721q0 -29 88 -127q29 20 53.5 58t24.5 69t-26.5 47t-63.5 16t-56.5 -17t-19.5 -46z" />
<glyph unicode="t" horiz-adv-x="692" d="M74 798q0 38 10 85h164q2 27 2 178l-4 84q196 65 374 65h5q14 -33 14 -113.5t-27 -213.5h185q0 -84 -35 -158l-176 14q-82 -367 -89.5 -426t-7.5 -97t25 -38q29 0 109 37l49 -98q-66 -59 -166 -100.5t-193.5 -41.5t-148.5 48.5t-55 136.5t51 282.5t67 288.5 q-49 -4 -145 -14q-8 43 -8 81z" />
<glyph unicode="u" horiz-adv-x="1110" d="M126 448.5q54 196.5 54 241.5t-74 131l5 31q186 41 436 41q16 -35 16 -110.5t-56 -286.5t-56 -250q0 -53 51 -53q35 0 88 26q6 33 37 172q72 309 71 463q94 41 322 41h55q0 -92 -54 -360.5t-55 -309.5t17 -41l100 27l37 -102q-59 -47 -171.5 -90.5t-198.5 -43.5 q-127 0 -158 103q-170 -102 -326 -103q-194 0 -194 189q0 88 54 284.5z" />
<glyph unicode="v" horiz-adv-x="874" d="M49 838l8 30q158 37 262.5 37t146.5 -48t42 -136t-32 -258t-32 -224.5t31 -54.5q49 0 128 93.5t104 183.5l-152 145q8 86 37 161t51 105l25 33q247 0 247 -203q0 -135 -80.5 -302t-226 -296t-301.5 -129q-207 0 -207 258l27 429q0 55 -15.5 86.5t-62.5 89.5z" />
<glyph unicode="w" horiz-adv-x="1351" d="M49 836l6 32q156 39 258.5 39t146.5 -49t44 -136t-31 -255t-31 -226.5t33 -58.5q45 0 113 54q2 35 18.5 200.5t16.5 246.5t-13 142q47 25 164 45.5t197 20.5q18 -37 18 -116t-34.5 -274.5t-34.5 -256t32 -60.5q49 0 127 97.5t103 177.5l-150 147q8 84 37 159t53 107 l23 33q248 0 248 -200q0 -96 -52.5 -223.5t-132.5 -239t-190.5 -189.5t-214.5 -78q-145 0 -199 125q-150 -123 -307 -123q-94 0 -145.5 55.5t-51.5 190.5l21 451q0 43 -12.5 74.5t-59.5 87.5z" />
<glyph unicode="x" horiz-adv-x="868" d="M-41 45q125 207 313 361q-70 211 -110 290q-16 41 -99 123l7 31q145 39 383 47q20 -6 46.5 -42t41.5 -83l41 -143q37 55 51 84l20 41q20 41 25 59q12 53 27 90q86 -8 169 -53l27 -14q-100 -190 -276 -351q88 -301 149 -301q25 0 90 31l45 -100q-49 -49 -154.5 -94.5 t-185.5 -45.5t-125 34t-75 118q-12 29 -47 131q-78 -92 -150 -283q-45 0 -110.5 21.5t-102.5 48.5z" />
<glyph unicode="y" horiz-adv-x="1034" d="M63 188q0 68 45.5 265.5t45.5 273.5t-11 113q242 51 375 51q17 -26 17 -99t-47 -280q-46 -209 -46 -246q0 -63 62 -63q35 0 80 18q16 104 45.5 318.5t42.5 294.5q53 25 160.5 42t189.5 17h16q-10 -53 -34 -229q-55 -401 -119 -607q-158 -516 -506 -516q-104 0 -169 44 t-65 115t34 117t97 77q109 53 267 88q16 78 20 100q-160 -86 -303 -86q-197 0 -197 192zM291 -260q0 -47 61 -47q31 0 81 42t81 124q-223 -39 -223 -119z" />
<glyph unicode="z" horiz-adv-x="870" d="M0 151.5q0 49.5 72.5 121t154.5 71.5q20 0 62 -4q121 113 213 297q-250 0 -377 -74q-25 98 -25 170t4 125q33 43 203 43l420 -10q72 0 133 6l19 -70q-297 -344 -424 -520q203 -53 257 -54h1q53 0 88 85l88 -31q-37 -360 -236 -360q-70 0 -189.5 67.5t-154.5 79.5 q-98 -104 -146 -104t-105.5 56t-57.5 105.5z" />
<glyph unicode="{" horiz-adv-x="958" d="M160 467q2 96 20 174q176 -29 244 -29l22 2q9 76 9 185l-6 422q0 133 77.5 208.5t207.5 75.5t263 -55l-16 -102h-16q-121 0 -145.5 -29t-41 -147.5t-30 -284.5t-21.5 -221q-14 -106 -141 -152q47 -16 74.5 -57t27.5 -103.5t-37 -294t-37 -272.5t7 -55q10 -29 49 -48.5 t73 -23.5l35 -6l-12 -103q-59 -10 -137 -10q-362 0 -363 230q0 74 71 316.5t87 334.5q-20 25 -203 41z" />
<glyph unicode="|" horiz-adv-x="548" d="M223 -305v1925q129 10 195 10v-1923q-90 -12 -195 -12z" />
<glyph unicode="}" horiz-adv-x="964" d="M57 -403l17 102q135 0 161.5 27.5t42 146.5t28.5 286t22 222q14 106 141 151q-47 16 -74.5 57.5t-27.5 104t36.5 295t36.5 271t-8 61t-47 42t-74 26.5l-35 4l13 102q59 10 137 10q362 0 362 -229q0 -74 -70.5 -316.5t-86.5 -334.5q20 -25 203 -39l61 -6q-2 -96 -21 -174 q-176 29 -243 28l-23 -2q-8 -75 -8 -184l6 -422q0 -133 -77.5 -209t-209 -76t-262.5 56z" />
<glyph unicode="~" horiz-adv-x="1105" d="M90 459q33 311 281 311q51 0 220 -27.5t241.5 -27.5t119.5 67l99 -24q-34 -299 -265 -299q-49 0 -222 27.5t-223 27.5t-82 -16.5t-64 -65.5z" />
<glyph unicode="&#xa1;" horiz-adv-x="636" d="M27 -473q0 150 97 492.5t140 416.5q63 23 120.5 23t98.5 -8q-53 -502 -53 -785l12 -178q-225 -70 -389 -70q-26 33 -26 109zM231 735q0 76 65.5 133.5t154 57.5t135.5 -45t47 -123t-63.5 -136.5t-152.5 -58.5t-137.5 48t-48.5 124z" />
<glyph unicode="&#xa2;" horiz-adv-x="849" d="M41 367q0 211 115.5 355t312.5 177q10 100 18 252q74 0 166 -29l-43 -217q137 -8 214 -69.5t77 -152.5t-57 -161q-68 0 -147 25.5t-126 64.5l31 154q-12 4 -24 4q-63 0 -108.5 -112.5t-45.5 -227.5q0 -252 145 -252q92 0 209 88l66 -90q-164 -178 -402 -199 q-10 -82 -10 -215q-80 0 -172 29l37 197q-119 27 -187.5 122t-68.5 257z" />
<glyph unicode="&#xa3;" horiz-adv-x="1128" d="M-23 203q0 20 76 74.5t146 68.5q33 100 61 356q-39 -4 -100 -16q-6 29 -6 69t6 87h116l23 192q33 289 166 383q68 49 142.5 66.5t180.5 17.5q170 0 284 -70.5t114 -181.5q0 -82 -68 -168q-195 0 -282 78l22 178q-18 18 -49 18.5t-51 -20.5q-31 -37 -47.5 -98t-35 -174 t-40.5 -221h323q-4 -47 -32 -113l-11 -20q-150 12 -311 12q-66 -240 -143 -397q258 -72 387 -72q53 0 88 43q31 37 55 84l111 -43q-41 -193 -108.5 -283t-168.5 -90q-66 0 -134 26.5t-163.5 77t-152.5 74.5q-57 -72 -129 -118t-101.5 -46t-98.5 91.5t-69 134.5z" />
<glyph unicode="&#xa4;" horiz-adv-x="1425" d="M90 1163q78 86 118 119t84 34t87 -54l90 -123q111 63 268.5 63t272.5 -65q18 25 49 67.5t43 57.5q43 55 92 55q39 -4 80 -35t117 -117q-72 -92 -211 -215q49 -104 49 -239.5t-51 -239.5q139 -123 217 -219q-76 -84 -116 -113.5t-79 -34.5q-49 0 -92 56q-12 16 -45 61 t-53 70q-111 -63 -263.5 -63.5t-259.5 53.5q-86 -119 -88 -121q-43 -55 -92 -56q-39 4 -79 34t-115 114q67 86 198 203q-59 111 -59 253t47 242q-129 111 -209 213zM518 715.5q0 -242.5 221 -242.5q115 0 168.5 65.5t53.5 176t-53.5 177t-168.5 66.5q-221 0 -221 -242.5z " />
<glyph unicode="&#xa5;" horiz-adv-x="1056" d="M96 345q0 40 6 79h236l18 82q-137 -6 -229 -19q-4 27 -4 66t6 82h250q-53 74 -94 319.5t-52 278.5q-20 57 -90 113l-24 18l6 47q209 35 426 35q55 -39 67.5 -120t22.5 -248t18 -210h11q51 90 119.5 269.5t103.5 316.5q57 0 139 -15.5t119 -35.5q-14 -23 -163.5 -322 t-242.5 -446h240q-4 -55 -31 -111l-8 -20q-92 6 -233 6l-15 -86h260q-4 -55 -28 -111l-10 -20q-98 8 -238 12q-14 -143 -14 -248q-88 -57 -385 -57h-11q0 90 39 295q-92 -8 -209 -23q-6 33 -6 73z" />
<glyph unicode="&#xa6;" horiz-adv-x="569" d="M223 -305v903h195v-891q-89 -12 -195 -12zM223 817v803q56 12 195 12v-815h-195z" />
<glyph unicode="&#xa7;" horiz-adv-x="1028" d="M10 -186q4 59 78 127.5t148 89.5q76 -51 124 -154q14 -33 37 -96q41 10 55.5 28.5t14.5 64.5t-42 114.5t-102.5 136.5t-119.5 139q-143 172 -144 322q0 115 81 195.5t216 121.5q-117 150 -116.5 285t138.5 225t297 90t250 -72.5t91 -183t-123 -215.5q-111 18 -164 96 q33 25 59.5 65t26.5 81t-29.5 65.5t-74.5 24.5q-127 0 -127 -115q0 -109 209 -317q76 -76 139 -180.5t63 -200.5t-86 -180t-225 -138q117 -147 117 -281t-115 -221t-277.5 -87t-280.5 60t-118 110zM408 645q0 -63 75 -149q20 -25 31.5 -38.5t38.5 -42t37 -40.5 q47 47 47 105.5t-31 103.5t-45 63q-31 45 -98 123q-55 -45 -55 -125z" />
<glyph unicode="&#xa8;" horiz-adv-x="1122" d="M178 1231.5q0 64.5 53.5 108.5t129 44t117.5 -35.5t42 -101t-52 -114t-128 -48.5t-119 41t-43 105.5zM610 1231.5q0 64.5 53.5 108.5t129 44t117.5 -35.5t42 -101t-52 -114t-128 -48.5t-119 41t-43 105.5z" />
<glyph unicode="&#xa9;" horiz-adv-x="1626" d="M66 704.5q0 319.5 202.5 531.5t569 212t565.5 -207t199 -530.5t-199 -532.5t-567.5 -209t-569 208t-200.5 527.5zM244 706q0 -257 153.5 -425t439 -168t438 169t152.5 430t-152.5 427t-436 166t-439 -171t-155.5 -428zM393 672.5q0 197.5 148.5 347t369.5 149.5 q141 0 236.5 -64.5t95.5 -172.5q0 -41 -12 -85t-25 -48q-35 -4 -76 -4q-145 0 -204 43l8 184q-6 12 -41 12q-63 0 -107.5 -92t-44.5 -233q0 -262 164 -263q115 0 197 82l78 -96q-6 -6 -15.5 -18.5t-45.5 -41t-75 -50.5q-102 -59 -233 -60q-172 0 -295 106.5t-123 304z" />
<glyph unicode="&#xaa;" horiz-adv-x="847" d="M109 893q0 197 107.5 332t285.5 135q70 0 114 -12q113 -31 187 -56q-33 -96 -60.5 -252.5t-27.5 -224.5q0 -20 16 -20l57 16l29 -72q-35 -35 -103.5 -70.5t-134 -35.5t-96.5 61q-90 -59 -174 -59t-142 67.5t-58 190.5zM383 903.5q0 -104.5 35 -104.5q18 0 43 20 q14 174 74 408q-25 6 -39 6q-47 0 -80 -112.5t-33 -217z" />
<glyph unicode="&#xab;" horiz-adv-x="1071" d="M90 593q0 50 137.5 181t290.5 254l94 -84q-160 -227 -215 -340q51 -141 156 -325l-92 -84q-84 59 -227.5 203.5t-143.5 194.5zM502 593q0 50 137 181t291 254l94 -84q-160 -227 -215 -340q51 -141 156 -325l-93 -84q-84 59 -227 203.5t-143 194.5z" />
<glyph unicode="&#xac;" horiz-adv-x="931" d="M94 606q0 125 12 191h721v-451q-70 -25 -198 -24v284h-535z" />
<glyph unicode="&#xad;" horiz-adv-x="1208" d="M248 664h756q6 -113 6 -185h-756q-6 86 -6 185z" />
<glyph unicode="&#xae;" horiz-adv-x="1626" d="M66 704.5q0 319.5 202.5 531.5t569 212t565.5 -207t199 -530.5t-199 -532.5t-567.5 -209t-569 208t-200.5 527.5zM244 706q0 -257 153.5 -425t439 -168t438 169t152.5 430t-152.5 427t-436 166t-439 -171t-155.5 -428zM430 317q10 82 57.5 327t47.5 317q0 31 -43 100 l10 53q193 47 411 47q137 0 226.5 -56t89.5 -147.5t-48 -162t-141 -105.5q35 -84 80 -161.5t70 -77.5l45 4l31 -72q-104 -82 -228 -82q-92 0 -145 47q-20 18 -37.5 56t-24 65t-18.5 81l-18 81h-21q-31 -188 -33 -289q-80 -35 -237 -35q-33 0 -74 10zM791 766q127 8 127 178 q0 88 -58 88l-35 -2q-6 -43 -17 -130t-17 -134z" />
<glyph unicode="&#xaf;" horiz-adv-x="1028" d="M270 1258q0 49 9 102h759l-18 -176q-131 8 -381 8t-363 -14q-6 31 -6 80z" />
<glyph unicode="&#xb0;" horiz-adv-x="522" d="M76 1205.5q0 111.5 82 187t217 75.5t213 -60t78 -161.5t-77 -184.5t-237 -83q-113 0 -194.5 57.5t-81.5 169zM281 1211q0 -40 18 -68.5t64.5 -28.5t70 44t23.5 82t-18.5 65.5t-62.5 27.5t-69.5 -41t-25.5 -81z" />
<glyph unicode="&#xb1;" horiz-adv-x="1193" d="M158 18q0 135 20 191h844q0 -141 -10 -191h-854zM158 621q0 123 8 190h309v287q66 10 197 10v-297h348q0 -160 -10 -190h-336v-291q-61 -16 -185 -17h-14v308h-317z" />
<glyph unicode="&#xb2;" horiz-adv-x="813" d="M86 829.5q0 20.5 49 70.5t86 50t62 -4q72 51 134 141.5t62 169t-66.5 78.5t-131.5 -88l-91 64q61 88 133 140t186 52t186.5 -58.5t72.5 -151.5t-94 -199.5t-209 -178.5q104 -25 163.5 -24.5t77 14t35.5 43.5l80 -28q-18 -213 -176 -213q-78 0 -173 40.5t-118 49.5 q-111 -72 -168 -72q-25 0 -62.5 42t-37.5 62.5z" />
<glyph unicode="&#xb3;" horiz-adv-x="729" d="M88 883q0 43 27 90q121 0 229 -51l-16 -109q16 -6 30 -6q47 0 66.5 52t19.5 116.5t-43 87t-133 24.5l-2 82q29 2 64 9q119 20 119 122q0 33 -20.5 49.5t-51.5 16.5q-76 0 -131 -72l-78 60q45 61 128 105t200.5 44t190.5 -47t73 -114.5t-56.5 -115.5t-150.5 -73 q213 -25 213 -192q0 -106 -93 -181t-296 -75q-111 0 -200 47t-89 131z" />
<glyph unicode="&#xb4;" horiz-adv-x="1261" d="M297 1128q252 123 561 320q23 -31 52.5 -96.5t29.5 -94.5q0 -72 -76 -104q-115 -53 -532 -127z" />
<glyph unicode="&#xb6;" horiz-adv-x="1316" d="M111 741q0 295 182 490.5t493 195.5h525q14 -63 14 -127.5t-5 -117t-19.5 -120t-23.5 -108.5t-32.5 -131t-32 -127t-43 -171t-51 -203.5t-41.5 -182.5q-45 -207 -45 -377q-119 -53 -225 -53h-62q4 217 185 914q86 332 99 444.5t13 175.5q-84 0 -110 -8 q-14 -256 -151.5 -771t-157.5 -759q-96 -47 -217 -47h-62q8 150 125 666q-166 6 -262 114.5t-96 302.5z" />
<glyph unicode="&#xb7;" horiz-adv-x="665" d="M145 671q0 79 62.5 135t149.5 56t133.5 -46t46.5 -124t-62.5 -137t-149.5 -59t-133.5 48t-46.5 127z" />
<glyph unicode="&#xb8;" horiz-adv-x="1048" d="M266 -253q0 73 80 158t146 113l122 -12q-112 -107 -112 -201q0 -37 30 -36q59 0 140 47l57 -84q-43 -49 -135 -93.5t-165 -44.5t-118 40t-45 113z" />
<glyph unicode="&#xb9;" horiz-adv-x="638" d="M143 1356l176 129q62 8 267 16l35 2q25 -41 24.5 -94t-66 -320.5t-65.5 -340.5q-76 -33 -238 -33h-65q10 109 64.5 316.5t70.5 322.5q-14 0 -66.5 -44t-62.5 -53z" />
<glyph unicode="&#xba;" horiz-adv-x="677" d="M90 893q0 205 111.5 332t294.5 127q137 0 202.5 -76t65.5 -189q0 -178 -102.5 -319t-301.5 -141q-131 0 -200.5 73.5t-69.5 192.5zM350 927.5q0 -96.5 10.5 -130t38.5 -33.5q49 0 78 108.5t29 225t-49 116.5t-78 -95t-29 -191.5z" />
<glyph unicode="&#xbb;" horiz-adv-x="1134" d="M111 279q160 227 215 339q-51 141 -156 326l94 84q84 -59 227.5 -203.5t143.5 -194.5t-137.5 -181.5t-290.5 -253.5zM524 279q160 227 215 339q-51 141 -155 326l92 84q84 -59 227.5 -203.5t143.5 -194.5t-137.5 -181.5t-291.5 -253.5z" />
<glyph unicode="&#xbc;" horiz-adv-x="1617" d="M137 1356l176 129q62 8 267 16l34 2q25 -41 25 -94t-65.5 -320.5t-65.5 -340.5q-76 -33 -238 -33h-65q10 109 64.5 316.5t70.5 322.5q-14 0 -66.5 -44t-62.5 -53zM266 59q113 315 373 707q264 401 401 739q130 -9 271 -75l14 -7q-88 -203 -247.5 -453.5t-306 -500.5 t-232.5 -494q-63 2 -143.5 25t-129.5 59zM774 216q0 17 12 36q195 250 242 321q72 100 129 179q119 25 303 26q20 -39 21 -76q0 -121 -64 -417h41q33 0 53 47l72 -23q-8 -66 -46 -121t-120 -55h-22q-12 -53 -13 -110q-76 -35 -241 -35h-45q0 51 13 108.5t15 67.5 q-92 10 -139 10t-125 -20q-25 0 -55.5 22.5t-30.5 39.5zM1042 317q82 -4 105 -8q57 246 55 285q-123 -197 -160 -277z" />
<glyph unicode="&#xbd;" horiz-adv-x="1619" d="M137 1356l176 129q62 8 267 16l34 2q25 -41 25 -94t-65.5 -320.5t-65.5 -340.5q-76 -33 -238 -33h-65q10 109 64.5 316.5t70.5 322.5q-14 0 -66.5 -44t-62.5 -53zM266 59q113 315 373 707q264 401 401 739q130 -9 271 -75l14 -7q-88 -203 -247.5 -453.5t-306 -500.5 t-232.5 -494q-63 2 -143.5 25t-129.5 59zM819 73.5q0 20.5 49.5 71t88 50.5t59.5 -5q72 51 134 141.5t62 169.5t-65 79q-70 0 -135 -88l-88 63q61 88 132.5 140.5t185.5 52.5t186.5 -58.5t72.5 -152t-94 -200t-209 -177.5q104 -25 163.5 -25t77 13.5t36.5 44.5l79 -29 q-18 -213 -176 -213q-78 0 -173 41t-118 49q-111 -72 -167 -72q-25 0 -63 42t-38 62.5z" />
<glyph unicode="&#xbe;" horiz-adv-x="1771" d="M76 886q0 36 28 87q121 0 230 -51l-17 -109q14 -6 31 -6q47 0 66.5 52t19.5 116.5t-43 87t-133 24.5l-2 82q29 2 63 9q119 20 119 122q0 33 -20.5 49.5t-50.5 16.5q-76 0 -131 -72l-78 60q45 61 128 105t200.5 44t190.5 -47t73 -114.5t-56.5 -115.5t-150.5 -73 q213 -25 213 -192q0 -106 -93.5 -181t-295.5 -75q-86 0 -162 30.5t-113 89.5q-16 25 -16 61zM420 59q113 315 373 707q264 401 401 739q129 -9 270 -75l15 -7q-88 -203 -248 -453.5t-306.5 -500.5t-232.5 -494q-63 2 -143 25t-129 59zM928 216q0 17 12 36q195 250 242 321 q72 100 129 179q119 25 303 26q20 -39 20 -76q0 -121 -63 -417h41q33 0 53 47l72 -23q-8 -66 -46 -121t-120 -55h-23q-12 -53 -12 -110q-76 -35 -242 -35h-45q0 51 13.5 108.5t15.5 67.5q-92 10 -140 10t-124 -20q-25 0 -55.5 22.5t-30.5 39.5zM1196 317q82 -4 104 -8 q57 246 56 285q-123 -197 -160 -277z" />
<glyph unicode="&#xbf;" horiz-adv-x="753" d="M-25 -223q0 61 34 134t61.5 111.5t83.5 104.5q120 133 120 172q0 20 -43 35q-6 2 -21 8t-26.5 9t-17.5 5q14 63 47 109q178 0 285.5 -62.5t107.5 -181.5q0 -76 -78 -180q-29 -37 -82 -102q-207 -254 -206 -326q0 -37 65 -37q84 147 160 219q72 -10 161 -82.5t89 -114.5 t-94.5 -107.5t-223.5 -65.5q-195 0 -308.5 99t-113.5 253zM268 718.5q0 69.5 60.5 127t150.5 57.5t140.5 -45t50.5 -118.5t-66.5 -127t-158 -53.5t-134.5 45t-43 114.5z" />
<glyph unicode="&#xc0;" d="M-59 190q0 190 198 363q96 84 253 140.5t347 66.5q74 186 189 567q2 8 2 29.5t-21 36.5v28q193 33 367 33l156 -8q20 -20 40.5 -91t26.5 -187.5t8 -538.5q225 -88 404 -213q-10 -39 -46 -78t-67 -59l-29 -19q-111 106 -260 191q10 -287 78 -287q23 0 49 10l50 -113 q-147 -86 -310 -86q-258 0 -258 310v293q-121 25 -235 30q-121 -311 -256 -493q-158 -213 -383 -213q-119 0 -211 79.5t-92 208.5zM170 203q0 -51 24.5 -86t73.5 -35q72 0 148 87t150.5 226.5t107.5 210.5q-242 -29 -373 -153.5t-131 -249.5zM803 1755q73 217 155 217 q94 0 531 -305l-53 -98q-299 106 -633 186zM936 758q80 -6 182 -23v90q0 336 -18 414q-2 2 -12.5 2t-12.5 -2q-4 -86 -139 -481z" />
<glyph unicode="&#xc1;" d="M-59 190q0 190 198 363q96 84 253 140.5t347 66.5q74 186 189 567q2 8 2 29.5t-21 36.5v28q193 33 367 33l156 -8q20 -20 40.5 -91t26.5 -187.5t8 -538.5q225 -88 404 -213q-10 -39 -46 -78t-67 -59l-29 -19q-111 106 -260 191q10 -287 78 -287q23 0 49 10l50 -113 q-147 -86 -310 -86q-258 0 -258 310v293q-121 25 -235 30q-121 -311 -256 -493q-158 -213 -383 -213q-119 0 -211 79.5t-92 208.5zM170 203q0 -51 24.5 -86t73.5 -35q72 0 148 87t150.5 226.5t107.5 210.5q-242 -29 -373 -153.5t-131 -249.5zM823 1675q252 123 561 320 q23 -31 52.5 -96.5t29.5 -94.5q0 -72 -75 -104q-115 -53 -533 -127zM936 758q80 -6 182 -23v90q0 336 -18 414q-2 2 -12.5 2t-12.5 -2q-4 -86 -139 -481z" />
<glyph unicode="&#xc2;" d="M-59 190q0 190 198 363q96 84 253 140.5t347 66.5q74 186 189 567q2 8 2 29.5t-21 36.5v28q193 33 367 33l156 -8q20 -20 40.5 -91t26.5 -187.5t8 -538.5q225 -88 404 -213q-10 -39 -46 -78t-67 -59l-29 -19q-111 106 -260 191q10 -287 78 -287q23 0 49 10l50 -113 q-147 -86 -310 -86q-258 0 -258 310v293q-121 25 -235 30q-121 -311 -256 -493q-158 -213 -383 -213q-119 0 -211 79.5t-92 208.5zM170 203q0 -51 24.5 -86t73.5 -35q72 0 148 87t150.5 226.5t107.5 210.5q-242 -29 -373 -153.5t-131 -249.5zM776 1669q121 109 290 214.5 t237.5 105.5t160.5 -123t138 -215l-86 -74q-184 121 -285 164q-160 -47 -389 -168zM936 758q80 -6 182 -23v90q0 336 -18 414q-2 2 -12.5 2t-12.5 -2q-4 -86 -139 -481z" />
<glyph unicode="&#xc3;" d="M-59 190q0 190 198 363q96 84 253 140.5t347 66.5q74 186 189 567q2 8 2 29.5t-21 36.5v28q193 33 367 33l156 -8q20 -20 40.5 -91t26.5 -187.5t8 -538.5q225 -88 404 -213q-10 -39 -46 -78t-67 -59l-29 -19q-111 106 -260 191q10 -287 78 -287q23 0 49 10l50 -113 q-147 -86 -310 -86q-258 0 -258 310v293q-121 25 -235 30q-121 -311 -256 -493q-158 -213 -383 -213q-119 0 -211 79.5t-92 208.5zM170 203q0 -51 24.5 -86t73.5 -35q72 0 148 87t150.5 226.5t107.5 210.5q-242 -29 -373 -153.5t-131 -249.5zM774 1626q29 309 238 309 q45 0 179 -32.5t181 -32.5t70.5 15.5t48.5 60.5l102 -21q-28 -297 -225 -297q-43 0 -178 33t-179 33t-73 -19.5t-57 -72.5zM936 758q80 -6 182 -23v90q0 336 -18 414q-2 2 -12.5 2t-12.5 -2q-4 -86 -139 -481z" />
<glyph unicode="&#xc4;" d="M-59 190q0 190 198 363q96 84 253 140.5t347 66.5q74 186 189 567q2 8 2 29.5t-21 36.5v28q193 33 367 33l156 -8q20 -20 40.5 -91t26.5 -187.5t8 -538.5q225 -88 404 -213q-10 -39 -46 -78t-67 -59l-29 -19q-111 106 -260 191q10 -287 78 -287q23 0 49 10l50 -113 q-147 -86 -310 -86q-258 0 -258 310v293q-121 25 -235 30q-121 -311 -256 -493q-158 -213 -383 -213q-119 0 -211 79.5t-92 208.5zM170 203q0 -51 24.5 -86t73.5 -35q72 0 148 87t150.5 226.5t107.5 210.5q-242 -29 -373 -153.5t-131 -249.5zM788 1778.5q0 64.5 53.5 108.5 t129.5 44t117.5 -35.5t41.5 -101t-52 -114t-128 -48.5t-119 41t-43 105.5zM936 758q80 -6 182 -23v90q0 336 -18 414q-2 2 -12.5 2t-12.5 -2q-4 -86 -139 -481zM1221 1778.5q0 64.5 53 108.5t129 44t118 -35.5t42 -101t-52.5 -114t-128 -48.5t-118.5 41t-43 105.5z" />
<glyph unicode="&#xc5;" d="M-59 190q0 190 198 363q96 84 253 140.5t347 66.5q74 186 189 567q2 8 2 29.5t-21 36.5v28q193 33 367 33l156 -8q20 -20 40.5 -91t26.5 -187.5t8 -538.5q225 -88 404 -213q-10 -39 -46 -78t-67 -59l-29 -19q-111 106 -260 191q10 -287 78 -287q23 0 49 10l50 -113 q-147 -86 -310 -86q-258 0 -258 310v293q-121 25 -235 30q-121 -311 -256 -493q-158 -213 -383 -213q-119 0 -211 79.5t-92 208.5zM170 203q0 -51 24.5 -86t73.5 -35q72 0 148 87t150.5 226.5t107.5 210.5q-242 -29 -373 -153.5t-131 -249.5zM930 1832q0 99 63.5 161.5 t182 62.5t182 -62.5t63.5 -161.5t-63.5 -163.5t-182 -64.5t-182 64.5t-63.5 163.5zM936 758q80 -6 182 -23v90q0 336 -18 414q-2 2 -12.5 2t-12.5 -2q-4 -86 -139 -481zM1083 1831q0 -39 25 -63.5t68 -24.5q84 0 84 88t-84 88q-43 0 -68 -24.5t-25 -63.5z" />
<glyph unicode="&#xc6;" horiz-adv-x="2060" d="M-59 201q0 213 215 375.5t583 211.5q90 240 179 539q2 8 2 29.5t-21 36.5v28q201 33 383 33h41l408 -8q129 0 235 8q6 -59 6 -123q0 -150 -104 -149q-25 0 -141.5 17.5t-154.5 17.5t-67 -5q0 -43 4 -424q203 -16 402 -57q8 -66 -15.5 -115t-37.5 -65l-15 -16 q-150 54 -332 77l2 -92q4 -207 33 -292t123 -85q131 0 291 152l100 -94q-113 -131 -283.5 -215t-336.5 -84t-248 102q-66 86 -80 289q-6 82 -6 205v149q-70 6 -113 6t-100 -4q-281 -748 -635 -747q-119 0 -218 75.5t-99 223.5zM170 211q0 -53 27.5 -91t72.5 -38 q88 0 193.5 152.5t208.5 388.5q-233 -49 -367.5 -164t-134.5 -248zM946 803q20 2 73.5 2t88.5 -2l4 155q-4 215 -18 281q-4 2 -14.5 2t-12.5 -2q2 -16 -36 -153.5t-85 -282.5z" />
<glyph unicode="&#xc7;" horiz-adv-x="1163" d="M100 542.5q0 241.5 94.5 447.5t270.5 335t389 129q61 0 131 -18q147 94 293 94q74 0 138.5 -21.5t94.5 -52.5q-16 -78 -45 -133l-8 -18q-96 72 -207 71q-57 0 -125 -24q94 -102 94.5 -285.5t-96 -340.5t-250.5 -157q-96 0 -157.5 78t-61.5 199q0 246 174 450 q-139 -12 -232 -213.5t-93 -443.5q0 -440 219 -440q164 0 367 217l96 -82q-127 -188 -318 -289q-84 -43 -172 -59q-92 -99 -92 -181q0 -37 31 -36q59 0 139 47l57 -84q-43 -49 -135 -93.5t-164.5 -44.5t-117.5 40t-45 103.5t48 129t111 113.5q-195 20 -311.5 170.5 t-116.5 392zM799 852q0 -61 22.5 -94t61.5 -33q61 0 101 101.5t40 232.5t-55 190q-170 -166 -170 -397z" />
<glyph unicode="&#xc8;" horiz-adv-x="1148" d="M106 365q0 117 77 212t204 158q-113 129 -113 289q0 203 158 316.5t365 113.5q78 0 141 -18q141 94 302 94t230 -84q-4 -72 -45 -119l-14 -16q-76 82 -219 82q-59 0 -121 -23q86 -74 86 -181.5t-62.5 -193.5t-154.5 -86t-146.5 57.5t-54.5 151.5t58 176q-76 -20 -125 -95 t-49 -187.5t32 -190.5q72 10 151 10t145.5 -39.5t66.5 -111.5t-59.5 -122t-158 -50t-231.5 78q-70 -92 -69.5 -187.5t55.5 -148.5t145 -53q186 0 363 192l88 -74q-41 -66 -107.5 -131t-128 -106t-156.5 -72t-196 -31q-190 0 -323.5 95.5t-133.5 294.5zM414 1755 q73 217 155 217q94 0 531 -305l-53 -98q-299 106 -633 186zM725 707q45 -61 104.5 -61.5t59.5 36.5q0 41 -80 41q-41 0 -84 -16zM874.5 1127q-0.5 -85 55.5 -85q29 0 47 32t18 81q0 90 -61 127q-59 -70 -59.5 -155z" />
<glyph unicode="&#xc9;" horiz-adv-x="1148" d="M106 365q0 117 77 212t204 158q-113 129 -113 289q0 203 158 316.5t365 113.5q78 0 141 -18q141 94 302 94t230 -84q-4 -72 -45 -119l-14 -16q-76 82 -219 82q-59 0 -121 -23q86 -74 86 -181.5t-62.5 -193.5t-154.5 -86t-146.5 57.5t-54.5 151.5t58 176q-76 -20 -125 -95 t-49 -187.5t32 -190.5q72 10 151 10t145.5 -39.5t66.5 -111.5t-59.5 -122t-158 -50t-231.5 78q-70 -92 -69.5 -187.5t55.5 -148.5t145 -53q186 0 363 192l88 -74q-41 -66 -107.5 -131t-128 -106t-156.5 -72t-196 -31q-190 0 -323.5 95.5t-133.5 294.5zM512 1675 q252 123 561 320q23 -31 52.5 -96.5t29.5 -94.5q0 -72 -76 -104q-115 -53 -532 -127zM725 707q45 -61 104.5 -61.5t59.5 36.5q0 41 -80 41q-41 0 -84 -16zM874.5 1127q-0.5 -85 55.5 -85q29 0 47 32t18 81q0 90 -61 127q-59 -70 -59.5 -155z" />
<glyph unicode="&#xca;" horiz-adv-x="1148" d="M106 365q0 117 77 212t204 158q-113 129 -113 289q0 203 158 316.5t365 113.5q78 0 141 -18q141 94 302 94t230 -84q-4 -72 -45 -119l-14 -16q-76 82 -219 82q-59 0 -121 -23q86 -74 86 -181.5t-62.5 -193.5t-154.5 -86t-146.5 57.5t-54.5 151.5t58 176q-76 -20 -125 -95 t-49 -187.5t32 -190.5q72 10 151 10t145.5 -39.5t66.5 -111.5t-59.5 -122t-158 -50t-231.5 78q-70 -92 -69.5 -187.5t55.5 -148.5t145 -53q186 0 363 192l88 -74q-41 -66 -107.5 -131t-128 -106t-156.5 -72t-196 -31q-190 0 -323.5 95.5t-133.5 294.5zM377 1669 q121 109 290 214.5t237.5 105.5t160.5 -123t137 -215l-86 -74q-184 121 -285 164q-160 -47 -389 -168zM725 707q45 -61 104.5 -61.5t59.5 36.5q0 41 -80 41q-41 0 -84 -16zM874.5 1127q-0.5 -85 55.5 -85q29 0 47 32t18 81q0 90 -61 127q-59 -70 -59.5 -155z" />
<glyph unicode="&#xcb;" horiz-adv-x="1148" d="M106 365q0 117 77 212t204 158q-113 129 -113 289q0 203 158 316.5t365 113.5q78 0 141 -18q141 94 302 94t230 -84q-4 -72 -45 -119l-14 -16q-76 82 -219 82q-59 0 -121 -23q86 -74 86 -181.5t-62.5 -193.5t-154.5 -86t-146.5 57.5t-54.5 151.5t58 176q-76 -20 -125 -95 t-49 -187.5t32 -190.5q72 10 151 10t145.5 -39.5t66.5 -111.5t-59.5 -122t-158 -50t-231.5 78q-70 -92 -69.5 -187.5t55.5 -148.5t145 -53q186 0 363 192l88 -74q-41 -66 -107.5 -131t-128 -106t-156.5 -72t-196 -31q-190 0 -323.5 95.5t-133.5 294.5zM418 1778.5 q0 64.5 53 108.5t129 44t118 -35.5t42 -101t-52.5 -114t-128 -48.5t-118.5 41t-43 105.5zM725 707q45 -61 104.5 -61.5t59.5 36.5q0 41 -80 41q-41 0 -84 -16zM850 1778.5q0 64.5 53 108.5t129 44t118 -35.5t42 -101t-52.5 -114t-128 -48.5t-118.5 41t-43 105.5zM874.5 1127 q-0.5 -85 55.5 -85q29 0 47 32t18 81q0 90 -61 127q-59 -70 -59.5 -155z" />
<glyph unicode="&#xcc;" horiz-adv-x="929" d="M14 215q0 129 127 275.5t383 244.5q20 123 20.5 251t-18 175t-73.5 47q-86 0 -256 -121l-78 107q262 233 504 233q168 0 233.5 -115.5t65.5 -309t-40 -378t-115 -342t-195.5 -258t-261 -100.5t-218.5 81t-78 210zM172 233q0 -43 25.5 -75.5t66.5 -32.5q76 0 141.5 125 t100.5 321q-152 -55 -243 -155.5t-91 -182.5zM266 1755q74 217 156 217q94 0 530 -305l-53 -98q-299 106 -633 186z" />
<glyph unicode="&#xcd;" horiz-adv-x="899" d="M14 215q0 129 127 275.5t383 244.5q20 123 20.5 251t-18 175t-73.5 47q-86 0 -256 -121l-78 107q262 233 504 233q168 0 233.5 -115.5t65.5 -309t-40 -378t-115 -342t-195.5 -258t-261 -100.5t-218.5 81t-78 210zM172 233q0 -43 25.5 -75.5t66.5 -32.5q76 0 141.5 125 t100.5 321q-152 -55 -243 -155.5t-91 -182.5zM252 1675q252 123 561 320q23 -31 52.5 -96.5t29.5 -94.5q0 -72 -76 -104q-115 -53 -532 -127z" />
<glyph unicode="&#xce;" horiz-adv-x="907" d="M14 215q0 129 127 275.5t383 244.5q20 123 20.5 251t-18 175t-73.5 47q-86 0 -256 -121l-78 107q262 233 504 233q168 0 233.5 -115.5t65.5 -309t-40 -378t-115 -342t-195.5 -258t-261 -100.5t-218.5 81t-78 210zM139 1669q121 109 290 214.5t237.5 105.5t161 -123 t137.5 -215l-86 -74q-184 121 -285 164q-160 -47 -389 -168zM172 233q0 -43 25.5 -75.5t66.5 -32.5q76 0 141.5 125t100.5 321q-152 -55 -243 -155.5t-91 -182.5z" />
<glyph unicode="&#xcf;" horiz-adv-x="899" d="M14 215q0 129 127 275.5t383 244.5q20 123 20.5 251t-18 175t-73.5 47q-86 0 -256 -121l-78 107q262 233 504 233q168 0 233.5 -115.5t65.5 -309t-40 -378t-115 -342t-195.5 -258t-261 -100.5t-218.5 81t-78 210zM172 233q0 -43 25.5 -75.5t66.5 -32.5q76 0 141.5 125 t100.5 321q-152 -55 -243 -155.5t-91 -182.5zM195 1778.5q0 64.5 53 108.5t129 44t118 -35.5t42 -101t-52.5 -114t-128 -48.5t-118.5 41t-43 105.5zM627 1778.5q0 64.5 53 108.5t129 44t118 -35.5t42 -101t-52.5 -114t-128 -48.5t-118.5 41t-43 105.5z" />
<glyph unicode="&#xd0;" horiz-adv-x="1687" d="M49 166q0 82 67.5 136t152.5 54t184 -41q8 23 26.5 88.5t20.5 83.5q-426 102 -426 418q0 252 260 413t614 161q305 0 510 -138q104 -70 163.5 -192.5t59.5 -310t-87 -390t-251.5 -339t-364.5 -136.5t-411 127q-141 -125 -286 -125q-100 0 -166 54.5t-66 136.5zM227 182 q0 -53 62.5 -53t109.5 74q-63 35 -97 35t-54.5 -15.5t-20.5 -40.5zM233 911q0 -199 299 -264q49 252 50 354q0 55 -45 105v29q135 61 337 61l107 -8q12 -23 12 -92q0 -219 -96 -475q133 12 209 43q12 -37 12 -74q0 -74 -22 -119q-57 -18 -273 -18q-66 -133 -149 -240 q131 -63 222 -63t169 83.5t123 208.5q90 256 90 471q0 406 -416 406q-244 0 -436.5 -127t-192.5 -281z" />
<glyph unicode="&#xd1;" horiz-adv-x="1673" d="M35 241.5q0 153.5 133 362.5t383 426q0 102 -17.5 141t-54.5 39q-88 0 -264 -127l-82 103q96 92 240.5 166.5t279.5 74.5q193 0 248 -184q92 68 139 98.5t146.5 71.5t203 41t175 -64.5t71.5 -183.5t-88 -470t-88 -486q0 -59 31 -60q35 0 96 25l43 -104 q-188 -135 -370 -136q-96 0 -148.5 53.5t-52.5 156t85 451.5t85 448.5t-76 99.5t-227 -103q4 -57 4 -88q0 -295 -81 -540.5t-222.5 -387t-311.5 -141.5q-127 0 -203.5 82t-76.5 235.5zM195 250q0 -55 24.5 -90t63.5 -35q98 0 177 201.5t93 511.5q-150 -127 -254 -298 t-104 -290zM737 1626q29 309 238 309q45 0 179 -32.5t181 -32.5t71 15.5t48 60.5l102 -21q-28 -297 -225 -297q-43 0 -178 33t-179 33t-73 -19.5t-57 -72.5z" />
<glyph unicode="&#xd2;" horiz-adv-x="1351" d="M66 572.5q0 279.5 137 514t397 365.5l70 -111q-119 -158 -160 -338t-41 -434q0 -442 170 -442q86 0 153.5 93t102.5 243q-315 55 -315 414q0 219 113.5 372.5t286.5 153.5t269.5 -138.5t96.5 -357.5q0 -119 -48 -291q96 12 193 66l35 18q39 -61 45 -139l2 -29 q-45 -27 -141.5 -55t-184.5 -35q-92 -211 -259 -339t-414.5 -128t-377.5 159t-130 438.5zM451 1755q73 217 155 217q94 0 531 -305l-54 -98q-299 106 -632 186zM745 901q0 -119 48.5 -190.5t130.5 -81.5q27 172 27 363.5t-66 191.5q-47 0 -93.5 -82t-46.5 -201z" />
<glyph unicode="&#xd3;" horiz-adv-x="1351" d="M66 572.5q0 279.5 137 514t397 365.5l70 -111q-119 -158 -160 -338t-41 -434q0 -442 170 -442q86 0 153.5 93t102.5 243q-315 55 -315 414q0 219 113.5 372.5t286.5 153.5t269.5 -138.5t96.5 -357.5q0 -119 -48 -291q96 12 193 66l35 18q39 -61 45 -139l2 -29 q-45 -27 -141.5 -55t-184.5 -35q-92 -211 -259 -339t-414.5 -128t-377.5 159t-130 438.5zM588 1675q252 123 561 320q23 -31 52.5 -96.5t29.5 -94.5q0 -72 -76 -104q-115 -53 -532 -127zM745 901q0 -119 48.5 -190.5t130.5 -81.5q27 172 27 363.5t-66 191.5q-47 0 -93.5 -82 t-46.5 -201z" />
<glyph unicode="&#xd4;" horiz-adv-x="1351" d="M66 572.5q0 279.5 137 514t397 365.5l70 -111q-119 -158 -160 -338t-41 -434q0 -442 170 -442q86 0 153.5 93t102.5 243q-315 55 -315 414q0 219 113.5 372.5t286.5 153.5t269.5 -138.5t96.5 -357.5q0 -119 -48 -291q96 12 193 66l35 18q39 -61 45 -139l2 -29 q-45 -27 -141.5 -55t-184.5 -35q-92 -211 -259 -339t-414.5 -128t-377.5 159t-130 438.5zM438 1655q121 108 290 213.5t237.5 105.5t161 -122.5t137.5 -215.5l-86 -73q-184 121 -285 163q-160 -47 -389 -167zM745 901q0 -119 48.5 -190.5t130.5 -81.5q27 172 27 363.5 t-66 191.5q-47 0 -93.5 -82t-46.5 -201z" />
<glyph unicode="&#xd5;" horiz-adv-x="1351" d="M66 572.5q0 279.5 137 514t397 365.5l70 -111q-119 -158 -160 -338t-41 -434q0 -442 170 -442q86 0 153.5 93t102.5 243q-315 55 -315 414q0 219 113.5 372.5t286.5 153.5t269.5 -138.5t96.5 -357.5q0 -119 -48 -291q96 12 193 66l35 18q39 -61 45 -139l2 -29 q-45 -27 -141.5 -55t-184.5 -35q-92 -211 -259 -339t-414.5 -128t-377.5 159t-130 438.5zM477 1626q29 309 238 309q45 0 179 -32.5t181 -32.5t70.5 15.5t48.5 60.5l102 -21q-28 -297 -225 -297q-43 0 -178 33t-179 33t-73 -19.5t-57 -72.5zM745 901q0 -119 48.5 -190.5 t130.5 -81.5q27 172 27 363.5t-66 191.5q-47 0 -93.5 -82t-46.5 -201z" />
<glyph unicode="&#xd6;" horiz-adv-x="1351" d="M66 572.5q0 279.5 137 514t397 365.5l70 -111q-119 -158 -160 -338t-41 -434q0 -442 170 -442q86 0 153.5 93t102.5 243q-315 55 -315 414q0 219 113.5 372.5t286.5 153.5t269.5 -138.5t96.5 -357.5q0 -119 -48 -291q96 12 193 66l35 18q39 -61 45 -139l2 -29 q-45 -27 -141.5 -55t-184.5 -35q-92 -211 -259 -339t-414.5 -128t-377.5 159t-130 438.5zM496 1778.5q0 64.5 53 108.5t129 44t118 -35.5t42 -101t-52.5 -114t-128 -48.5t-118.5 41t-43 105.5zM745 901q0 -119 48.5 -190.5t130.5 -81.5q27 172 27 363.5t-66 191.5 q-47 0 -93.5 -82t-46.5 -201zM928 1778.5q0 64.5 53 108.5t129 44t118 -35.5t42 -101t-52.5 -114t-128 -48.5t-118.5 41t-43 105.5z" />
<glyph unicode="&#xd7;" horiz-adv-x="1046" d="M143 330l254 254l-250 250q37 53 129 141l254 -256l256 256q92 -88 129 -141l-249 -250l254 -254q-29 -54 -125 -144l-265 263l-262 -263q-104 96 -125 144z" />
<glyph unicode="&#xd8;" horiz-adv-x="1323" d="M63 582q0 209 93.5 412.5t266.5 331.5t386 128q47 0 86 -6q10 25 76 194q53 -4 108.5 -22.5t69.5 -30.5q-14 -33 -76 -192q137 -70 203.5 -205t66.5 -287.5t-44 -308.5t-131 -298t-240.5 -232.5t-349.5 -90.5q-27 0 -68 5l-70 -193q-29 2 -82 20q-55 16 -88 37 q31 92 68 185q-133 66 -204 205t-71 348zM465 526q0 -132 2 -155l364 917q-25 10 -51 10q-78 0 -140 -72.5t-99 -189.5q-76 -238 -76 -510zM571 143q27 -12 66 -12q82 0 144.5 83t95.5 214q68 258 67 535q0 31 -4 104q-252 -623 -369 -924z" />
<glyph unicode="&#xd9;" horiz-adv-x="1554" d="M6 1028q0 125 87 226.5t203 150.5t247 49t219 -66.5t88 -197.5t-108.5 -464t-108.5 -417t70.5 -84t185.5 107q8 115 37 256q90 457 219 661.5t301 204.5q109 0 163 -56.5t54 -148.5q0 -162 -113.5 -369.5t-269.5 -392.5q-4 -82 -4 -146.5t10 -119.5t47 -55q31 0 80 16 l37 -106q-158 -100 -303 -101q-203 0 -248 175q-233 -176 -432 -177q-111 0 -173.5 65.5t-62.5 170t103 442.5q-328 154 -328 377zM172 1053q0 -162 207 -242q70 221 70 354q0 104 -76 105q-70 0 -135.5 -65.5t-65.5 -151.5zM483 1755q74 217 156 217q94 0 530 -305l-53 -98 q-299 106 -633 186zM1311 725q76 119 136 282.5t60 219t-20 55.5q-43 0 -92 -168t-84 -389z" />
<glyph unicode="&#xda;" horiz-adv-x="1554" d="M6 1028q0 125 87 226.5t203 150.5t247 49t219 -66.5t88 -197.5t-108.5 -464t-108.5 -417t70.5 -84t185.5 107q8 115 37 256q90 457 219 661.5t301 204.5q109 0 163 -56.5t54 -148.5q0 -162 -113.5 -369.5t-269.5 -392.5q-4 -82 -4 -146.5t10 -119.5t47 -55q31 0 80 16 l37 -106q-158 -100 -303 -101q-203 0 -248 175q-233 -176 -432 -177q-111 0 -173.5 65.5t-62.5 170t103 442.5q-328 154 -328 377zM172 1053q0 -162 207 -242q70 221 70 354q0 104 -76 105q-70 0 -135.5 -65.5t-65.5 -151.5zM803 1675q252 123 561 320q23 -31 52.5 -96.5 t29.5 -94.5q0 -72 -76 -104q-115 -53 -532 -127zM1311 725q76 119 136 282.5t60 219t-20 55.5q-43 0 -92 -168t-84 -389z" />
<glyph unicode="&#xdb;" horiz-adv-x="1554" d="M6 1028q0 125 87 226.5t203 150.5t247 49t219 -66.5t88 -197.5t-108.5 -464t-108.5 -417t70.5 -84t185.5 107q8 115 37 256q90 457 219 661.5t301 204.5q109 0 163 -56.5t54 -148.5q0 -162 -113.5 -369.5t-269.5 -392.5q-4 -82 -4 -146.5t10 -119.5t47 -55q31 0 80 16 l37 -106q-158 -100 -303 -101q-203 0 -248 175q-233 -176 -432 -177q-111 0 -173.5 65.5t-62.5 170t103 442.5q-328 154 -328 377zM172 1053q0 -162 207 -242q70 221 70 354q0 104 -76 105q-70 0 -135.5 -65.5t-65.5 -151.5zM592 1669q121 109 290 214.5t237.5 105.5 t160.5 -123t137 -215l-86 -74q-184 121 -284 164q-160 -47 -390 -168zM1311 725q76 119 136 282.5t60 219t-20 55.5q-43 0 -92 -168t-84 -389z" />
<glyph unicode="&#xdc;" horiz-adv-x="1554" d="M6 1028q0 125 87 226.5t203 150.5t247 49t219 -66.5t88 -197.5t-108.5 -464t-108.5 -417t70.5 -84t185.5 107q8 115 37 256q90 457 219 661.5t301 204.5q109 0 163 -56.5t54 -148.5q0 -162 -113.5 -369.5t-269.5 -392.5q-4 -82 -4 -146.5t10 -119.5t47 -55q31 0 80 16 l37 -106q-158 -100 -303 -101q-203 0 -248 175q-233 -176 -432 -177q-111 0 -173.5 65.5t-62.5 170t103 442.5q-328 154 -328 377zM172 1053q0 -162 207 -242q70 221 70 354q0 104 -76 105q-70 0 -135.5 -65.5t-65.5 -151.5zM662 1778.5q0 64.5 53 108.5t129 44t118 -35.5 t42 -101t-52.5 -114t-128 -48.5t-118.5 41t-43 105.5zM1094 1778.5q0 64.5 53 108.5t129 44t118 -35.5t42 -101t-52.5 -114t-128 -48.5t-118.5 41t-43 105.5zM1311 725q76 119 136 282.5t60 219t-20 55.5q-43 0 -92 -168t-84 -389z" />
<glyph unicode="&#xdd;" horiz-adv-x="1603" d="M16 1032q0 123 86 222.5t207 149.5t248 50t219 -66.5t92 -187.5t-97 -425t-97 -355q0 -66 66.5 -66t179.5 76l20 109q57 319 86 410t54.5 165t51 116t61.5 91t75 74q94 59 201.5 59t165 -58.5t57.5 -154.5q0 -139 -106.5 -345t-266.5 -359q-53 -258 -115 -428 q172 0 340 -27q0 -92 -61 -197q-174 45 -350 54q-195 -397 -543 -398q-129 0 -204 51.5t-75 143.5q0 117 129 213t398 153l32 115q-211 -119 -381 -119q-100 0 -158.5 51.5t-58.5 141.5t78 360q-334 154 -334 381zM182 1051q0 -156 211 -240q74 233 74 346t-76 113 t-142.5 -61.5t-66.5 -157.5zM522 -227q0 -41 55.5 -41t115 58t104.5 151q-123 -23 -199 -73t-76 -95zM793 1675q252 123 561 320q23 -31 52.5 -96.5t29.5 -94.5q0 -72 -76 -104q-115 -53 -533 -127zM1374 811q59 90 108.5 224t49 190.5t-20.5 56.5q-33 0 -59 -98 q-41 -158 -78 -373z" />
<glyph unicode="&#xde;" horiz-adv-x="1196" d="M84 -6q0 100 119 604t119 608q0 33 -21.5 76t-42.5 70l-20 26l6 41q115 35 450 35q37 -33 37 -149q0 -16 -8 -82q20 2 59 2q461 0 461 -348q0 -229 -167 -388t-482 -159h-66q-33 -176 -32 -295q-94 -41 -385 -41h-27zM561 502h8q127 0 201 111.5t74 287.5q0 76 -25.5 124 t-63.5 48t-65 -10q-125 -541 -129 -561z" />
<glyph unicode="&#xdf;" horiz-adv-x="1357" d="M51 -252q131 375 205 973q-104 -6 -160 -19q-2 25 -2 62t15 119h172q72 356 210 485t408 129q231 0 342 -104q63 -61 63.5 -143.5t-38.5 -144t-87.5 -94t-87 -75.5t-38.5 -88t49 -109.5t109.5 -123t109.5 -141.5t49 -159q0 -154 -131 -246t-301 -92q-111 0 -221.5 58.5 t-110.5 109.5q0 37 72 117t131 94q39 -12 95.5 -71.5t101.5 -149.5q53 8 53 45q0 86 -182 262q-68 66 -125.5 157t-57.5 156.5t24.5 101.5t59.5 63.5t70 62.5q86 80 86 244q0 63 -24.5 99t-69.5 36q-82 0 -141.5 -234.5t-90 -525.5t-86 -570.5t-129.5 -348.5 q-80 0 -187.5 20.5t-154.5 44.5z" />
<glyph unicode="&#xe0;" horiz-adv-x="1087" d="M59 324q0 231 119 407t314 176q106 0 217 -59q16 37 26 53q147 0 326 -72q-43 -133 -74 -316t-31 -256t23 -73l102 29l37 -102q-66 -51 -167 -93.5t-179 -42.5q-133 0 -168 115q-162 -115 -285.5 -115t-191.5 90.5t-68 258.5zM317 1208q74 217 156 217q94 0 531 -305 l-54 -98q-299 106 -633 186zM444 349.5q0 -103.5 14.5 -130t53.5 -26.5t76 30q8 238 78 498q-31 18 -71 18t-71.5 -45t-48.5 -112q-31 -129 -31 -232.5z" />
<glyph unicode="&#xe1;" horiz-adv-x="1087" d="M59 324q0 231 119 407t314 176q106 0 217 -59q16 37 26 53q147 0 326 -72q-43 -133 -74 -316t-31 -256t23 -73l102 29l37 -102q-66 -51 -167 -93.5t-179 -42.5q-133 0 -168 115q-162 -115 -285.5 -115t-191.5 90.5t-68 258.5zM414 1128q252 123 561 320 q23 -31 52.5 -96.5t29.5 -94.5q0 -72 -76 -104q-115 -53 -532 -127zM444 349.5q0 -103.5 14.5 -130t53.5 -26.5t76 30q8 238 78 498q-31 18 -71 18t-71.5 -45t-48.5 -112q-31 -129 -31 -232.5z" />
<glyph unicode="&#xe2;" horiz-adv-x="1087" d="M59 324q0 231 119 407t314 176q106 0 217 -59q16 37 26 53q147 0 326 -72q-43 -133 -74 -316t-31 -256t23 -73l102 29l37 -102q-66 -51 -167 -93.5t-179 -42.5q-133 0 -168 115q-162 -115 -285.5 -115t-191.5 90.5t-68 258.5zM291 1122q121 109 290 214.5t237.5 105.5 t160.5 -123t137 -215l-86 -74q-184 121 -285 164q-160 -47 -389 -168zM444 349.5q0 -103.5 14.5 -130t53.5 -26.5t76 30q8 238 78 498q-31 18 -71 18t-71.5 -45t-48.5 -112q-31 -129 -31 -232.5z" />
<glyph unicode="&#xe3;" horiz-adv-x="1077" d="M59 324q0 231 119 407t314 176q106 0 217 -59q16 37 26 53q147 0 326 -72q-43 -133 -74 -316t-31 -256t23 -73l102 29l37 -102q-66 -51 -167 -93.5t-179 -42.5q-133 0 -168 115q-162 -115 -285.5 -115t-191.5 90.5t-68 258.5zM309 1079q29 309 238 310q45 0 179 -33 t181 -33t70.5 15.5t48.5 60.5l102 -21q-28 -297 -225 -297q-43 0 -178 33t-179 33t-73 -19.5t-57 -72.5zM444 349.5q0 -103.5 14.5 -130t53.5 -26.5t76 30q8 238 78 498q-31 18 -71 18t-71.5 -45t-48.5 -112q-31 -129 -31 -232.5z" />
<glyph unicode="&#xe4;" horiz-adv-x="1087" d="M59 324q0 231 119 407t314 176q106 0 217 -59q16 37 26 53q147 0 326 -72q-43 -133 -74 -316t-31 -256t23 -73l102 29l37 -102q-66 -51 -167 -93.5t-179 -42.5q-133 0 -168 115q-162 -115 -285.5 -115t-191.5 90.5t-68 258.5zM297 1231.5q0 64.5 53 108.5t129 44 t118 -35.5t42 -101t-52 -114t-128 -48.5t-119 41t-43 105.5zM444 349.5q0 -103.5 14.5 -130t53.5 -26.5t76 30q8 238 78 498q-31 18 -71 18t-71.5 -45t-48.5 -112q-31 -129 -31 -232.5zM729 1231.5q0 64.5 53.5 108.5t129 44t117.5 -35.5t42 -101t-52 -114t-128 -48.5 t-119 41t-43 105.5z" />
<glyph unicode="&#xe5;" horiz-adv-x="1087" d="M59 324q0 231 119 407t314 176q106 0 217 -59q16 37 26 53q147 0 326 -72q-43 -133 -74 -316t-31 -256t23 -73l102 29l37 -102q-66 -51 -167 -93.5t-179 -42.5q-133 0 -168 115q-162 -115 -285.5 -115t-191.5 90.5t-68 258.5zM444 349.5q0 -103.5 14.5 -130t53.5 -26.5 t76 30q8 238 78 498q-31 18 -71 18t-71.5 -45t-48.5 -112q-31 -129 -31 -232.5zM444 1285q0 99 63.5 161.5t182.5 62.5t182.5 -62.5t63.5 -161.5t-63.5 -163.5t-182.5 -64.5t-182.5 64.5t-63.5 163.5zM598 1284q0 -39 24.5 -63.5t67.5 -24.5q84 0 84 88t-84 88 q-43 0 -67.5 -24.5t-24.5 -63.5z" />
<glyph unicode="&#xe6;" horiz-adv-x="1359" d="M59 315q0 274 115 433t283 159q109 0 215 -61q10 27 26 55q111 -4 203 -31q94 37 220 37t206 -59.5t80 -150.5t-47 -151.5t-115 -92.5q-143 -72 -244 -84l-47 -7q0 -90 39 -141t96.5 -51t107.5 19.5t77 39.5l26 21l60 -100q-8 -6 -21.5 -18.5t-59.5 -42.5t-95 -52 q-123 -61 -271 -62q-188 0 -274 129q-174 -129 -328 -129q-98 0 -175 83t-77 257zM438 344.5q0 -151.5 66 -151.5q35 0 90 32q-14 57 -14 129q0 178 53 369q-45 18 -72 18q-53 0 -88 -122.5t-35 -274zM954 483q58 17 100 78.5t42 138t-43 76.5q-51 0 -75 -105.5t-24 -187.5z " />
<glyph unicode="&#xe7;" horiz-adv-x="868" d="M41 367q0 238 146.5 389t383.5 151q154 0 242 -62.5t88 -157.5t-57 -165q-68 0 -147 25.5t-126 64.5l31 154q-12 4 -24 4q-63 0 -108.5 -112.5t-45.5 -227.5q0 -252 145 -252q92 0 209 88l66 -90q-158 -170 -385 -196q-84 -96 -84 -175q0 -37 31 -36q59 0 139 47l57 -84 q-43 -49 -135 -93.5t-165 -44.5t-118 40t-45 104.5t51.5 131.5t116.5 116q-121 25 -193.5 120t-72.5 261z" />
<glyph unicode="&#xe8;" horiz-adv-x="892" d="M41 362q0 262 154.5 403.5t386.5 141.5q154 0 249 -68.5t95 -181.5q0 -82 -51.5 -147.5t-124.5 -99.5q-147 -70 -271 -86l-51 -9q23 -135 139 -135q45 0 103.5 21.5t95.5 44.5l35 20l65 -88l-22 -22q-12 -12 -58.5 -48t-97.5 -63q-131 -70 -293 -70t-258 100.5t-96 286.5 zM219 1208q74 217 156 217q94 0 530 -305l-53 -98q-299 106 -633 186zM420 451q59 8 118.5 97t59.5 163q0 47 -37 47q-49 0 -92 -81t-49 -226z" />
<glyph unicode="&#xe9;" horiz-adv-x="894" d="M41 362q0 262 154.5 403.5t386.5 141.5q154 0 249 -68.5t95 -181.5q0 -82 -51.5 -147.5t-124.5 -99.5q-147 -70 -271 -86l-51 -9q23 -135 139 -135q45 0 103.5 21.5t95.5 44.5l35 20l65 -88l-22 -22q-12 -12 -58.5 -48t-97.5 -63q-131 -70 -293 -70t-258 100.5t-96 286.5 zM285 1128q252 123 561 320q23 -31 52.5 -96.5t29.5 -94.5q0 -72 -76 -104q-115 -53 -533 -127zM420 451q59 8 118.5 97t59.5 163q0 47 -37 47q-49 0 -92 -81t-49 -226z" />
<glyph unicode="&#xea;" horiz-adv-x="894" d="M41 362q0 262 154.5 403.5t386.5 141.5q154 0 249 -68.5t95 -181.5q0 -82 -51.5 -147.5t-124.5 -99.5q-147 -70 -271 -86l-51 -9q23 -135 139 -135q45 0 103.5 21.5t95.5 44.5l35 20l65 -88l-22 -22q-12 -12 -58.5 -48t-97.5 -63q-131 -70 -293 -70t-258 100.5t-96 286.5 zM176 1122q121 109 290 214.5t237.5 105.5t160.5 -123t137 -215l-86 -74q-184 121 -284 164q-160 -47 -389 -168zM420 451q59 8 118.5 97t59.5 163q0 47 -37 47q-49 0 -92 -81t-49 -226z" />
<glyph unicode="&#xeb;" horiz-adv-x="894" d="M41 362q0 262 154.5 403.5t386.5 141.5q154 0 249 -68.5t95 -181.5q0 -82 -51.5 -147.5t-124.5 -99.5q-147 -70 -271 -86l-51 -9q23 -135 139 -135q45 0 103.5 21.5t95.5 44.5l35 20l65 -88l-22 -22q-12 -12 -58.5 -48t-97.5 -63q-131 -70 -293 -70t-258 100.5t-96 286.5 zM205 1231.5q0 64.5 53 108.5t129 44t118 -35.5t42 -101t-52.5 -114t-128 -48.5t-118.5 41t-43 105.5zM420 451q59 8 118.5 97t59.5 163q0 47 -37 47q-49 0 -92 -81t-49 -226zM637 1231.5q0 64.5 53 108.5t129 44t118 -35.5t42 -101t-52.5 -114t-128 -48.5t-118.5 41 t-43 105.5z" />
<glyph unicode="&#xec;" horiz-adv-x="614" d="M68 159q0 89 50 272t50 233q0 76 -53 143l-17 22l6 35q106 33 414 33q33 -37 33 -128t-51 -280.5t-51 -247t22.5 -57.5t81.5 21l18 8l37 -102q-70 -53 -173 -94.5t-187 -41.5t-132 47.5t-48 136.5zM80 1214q72 209 156 209q41 0 131 -53t159.5 -105.5t190.5 -146.5 l-53 -98q-381 147 -584 194z" />
<glyph unicode="&#xed;" horiz-adv-x="614" d="M68 159q0 89 50 272t50 233q0 76 -53 143l-17 22l6 35q106 33 414 33q33 -37 33 -128t-51 -280.5t-51 -247t22.5 -57.5t81.5 21l18 8l37 -102q-70 -53 -173 -94.5t-187 -41.5t-132 47.5t-48 136.5zM125 1135q276 143 524 307q23 -33 52.5 -93t29.5 -87q0 -70 -76 -103 q-57 -25 -212.5 -65.5t-282.5 -61.5z" />
<glyph unicode="&#xee;" horiz-adv-x="614" d="M8 1122q115 113 265.5 216.5t220.5 103.5q45 0 133 -127t127 -211l-86 -74q-188 135 -250 164q-125 -41 -344 -168zM68 159q0 89 50 272t50 233q0 76 -53 143l-17 22l6 35q106 33 414 33q33 -37 33 -128t-51 -280.5t-51 -247t22.5 -57.5t81.5 21l18 8l37 -102 q-70 -53 -173 -94.5t-187 -41.5t-132 47.5t-48 136.5z" />
<glyph unicode="&#xef;" horiz-adv-x="614" d="M68 159q0 89 50 272t50 233q0 76 -53 143l-17 22l6 35q106 33 414 33q33 -37 33 -128t-51 -280.5t-51 -247t22.5 -57.5t81.5 21l18 8l37 -102q-70 -53 -173 -94.5t-187 -41.5t-132 47.5t-48 136.5zM78 1231.5q0 64.5 49 108.5t117.5 44t106.5 -35.5t38 -101t-47 -114 t-116.5 -48.5t-108.5 41t-39 105.5zM457 1231.5q0 64.5 49 108.5t117.5 44t106.5 -35.5t38 -101t-48 -114t-116.5 -48.5t-107.5 41t-39 105.5z" />
<glyph unicode="&#xf0;" horiz-adv-x="1003" d="M39 401.5q0 186.5 134 346t345 159.5q47 0 86 -8q-20 115 -55 197l-240 -72q-16 16 -30.5 61t-14.5 78l219 64q-66 104 -174 194l56 82q197 -57 356 -205l262 78q10 -14 21.5 -67.5t11.5 -71.5l-189 -57q191 -259 191 -564q0 -352 -242 -540q-129 -100 -322.5 -100.5 t-304 119.5t-110.5 306.5zM403 340q0 -84 21.5 -145.5t60.5 -61.5q70 0 106 142t36 335q0 47 -4 142h-13q-66 0 -114 -64q-92 -123 -93 -348z" />
<glyph unicode="&#xf1;" horiz-adv-x="1134" d="M72 -12q0 127 58 385t58 297t-18 75.5t-37 55.5l-18 18l4 31q121 39 422 39q20 -47 28 -98q186 115 314 114q86 0 135 -56t49 -135t-45 -253t-45 -226.5t14 -52.5l109 29l37 -102q-66 -49 -171.5 -91.5t-193.5 -42.5q-174 0 -174 181q0 78 43 254t43 220t-29 44 q-37 0 -98 -41q-8 -37 -41 -178q-66 -297 -65 -428q-101 -39 -345 -39h-34zM293 1067q29 309 237 309q45 0 179.5 -32.5t181.5 -32.5t70.5 15t48.5 60l102 -20q-28 -297 -225 -297q-43 0 -178.5 33t-179.5 33t-72.5 -19.5t-57.5 -73.5z" />
<glyph unicode="&#xf2;" horiz-adv-x="913" d="M41 362q0 225 133 382t350 157l92 -8q49 14 93 14q102 0 146 -69.5t50 -198.5q86 4 164 27l29 8q14 -14 20 -86l2 -23q-92 -47 -225 -73q-45 -217 -178 -367t-332 -150q-160 0 -252 101.5t-92 285.5zM262 1208q74 217 156 217q94 0 530 -305l-53 -98q-299 106 -633 186z M426 371q0 -190 96 -191q68 0 138.5 86t97.5 209q-209 0 -209 201q0 35 6 72q-20 0 -31 -7q-35 -37 -66.5 -148t-31.5 -222z" />
<glyph unicode="&#xf3;" horiz-adv-x="913" d="M41 362q0 225 133 382t350 157l92 -8q49 14 93 14q102 0 146 -69.5t50 -198.5q86 4 164 27l29 8q14 -14 20 -86l2 -23q-92 -47 -225 -73q-45 -217 -178 -367t-332 -150q-160 0 -252 101.5t-92 285.5zM313 1128q252 123 561 320q23 -31 52.5 -96.5t29.5 -94.5 q0 -72 -75 -104q-115 -53 -533 -127zM426 371q0 -190 96 -191q68 0 138.5 86t97.5 209q-209 0 -209 201q0 35 6 72q-20 0 -31 -7q-35 -37 -66.5 -148t-31.5 -222z" />
<glyph unicode="&#xf4;" horiz-adv-x="913" d="M41 362q0 225 133 382t350 157l92 -8q49 14 93 14q102 0 146 -69.5t50 -198.5q86 4 164 27l29 8q14 -14 20 -86l2 -23q-92 -47 -225 -73q-45 -217 -178 -367t-332 -150q-160 0 -252 101.5t-92 285.5zM174 1122q121 109 290 214.5t237.5 105.5t160.5 -123t137 -215 l-86 -74q-184 121 -284 164q-160 -47 -389 -168zM426 371q0 -190 96 -191q68 0 138.5 86t97.5 209q-209 0 -209 201q0 35 6 72q-20 0 -31 -7q-35 -37 -66.5 -148t-31.5 -222z" />
<glyph unicode="&#xf5;" horiz-adv-x="913" d="M41 362q0 225 133 382t350 157l92 -8q49 14 93 14q102 0 146 -69.5t50 -198.5q86 4 164 27l29 8q14 -14 20 -86l2 -23q-92 -47 -225 -73q-45 -217 -178 -367t-332 -150q-160 0 -252 101.5t-92 285.5zM168 1079q29 309 238 310q45 0 179 -33t181 -33t70.5 15.5t48.5 60.5 l102 -21q-28 -297 -225 -297q-43 0 -178 33t-179.5 33t-73 -19.5t-57.5 -72.5zM426 371q0 -190 96 -191q68 0 138.5 86t97.5 209q-209 0 -209 201q0 35 6 72q-20 0 -31 -7q-35 -37 -66.5 -148t-31.5 -222z" />
<glyph unicode="&#xf6;" horiz-adv-x="913" d="M41 362q0 225 133 382t350 157l92 -8q49 14 93 14q102 0 146 -69.5t50 -198.5q86 4 164 27l29 8q14 -14 20 -86l2 -23q-92 -47 -225 -73q-45 -217 -178 -367t-332 -150q-160 0 -252 101.5t-92 285.5zM203 1231.5q0 64.5 53 108.5t129 44t118 -35.5t42 -101t-52.5 -114 t-128 -48.5t-118.5 41t-43 105.5zM426 371q0 -190 96 -191q68 0 138.5 86t97.5 209q-209 0 -209 201q0 35 6 72q-20 0 -31 -7q-35 -37 -66.5 -148t-31.5 -222zM635 1231.5q0 64.5 53 108.5t129 44t118 -35.5t42 -101t-52.5 -114t-128 -48.5t-118.5 41t-43 105.5z" />
<glyph unicode="&#xf7;" horiz-adv-x="1118" d="M137 475q0 123 19 189h841q0 -147 -12 -189h-848zM389 186.5q0 59.5 47 101.5t112.5 42t99.5 -35t34 -92.5t-47 -102.5t-111.5 -45t-99.5 36t-35 95.5zM424 931.5q0 59.5 47 101.5t112.5 42t99.5 -34.5t34 -92t-47 -102.5t-111.5 -45t-99.5 35.5t-35 95z" />
<glyph unicode="&#xf8;" horiz-adv-x="909" d="M41 365q0 223 138 382.5t384 159.5h15q23 86 47 178h12q72 0 168 -61l-55 -162q141 -78 141 -276q0 -104 -44 -220t-136.5 -217.5t-206.5 -136.5q-35 -127 -47 -180h-37t-109 21l-39 14l45 135q-127 23 -201.5 117t-74.5 246zM350 354.5q0 -108.5 35 -147.5 q68 211 162 577q-92 -36 -144.5 -178.5t-52.5 -251zM553 209q78 51 126 168t48 203t-25 139q-78 -236 -149 -510z" />
<glyph unicode="&#xf9;" horiz-adv-x="1110" d="M72 166q0 86 54 282.5t54 241.5t-74 131l5 31q186 41 436 41q16 -35 16 -110.5t-56 -286.5t-56 -250q0 -53 51 -53q35 0 88 26q6 33 37 172q72 309 71 463q94 41 322 41h55q0 -92 -54 -360.5t-55 -309.5t17 -41l100 27l37 -102q-59 -47 -171.5 -90.5t-198.5 -43.5 q-127 0 -158 103q-170 -102 -326 -103q-195 0 -194 191zM334 1208q73 217 155 217q94 0 531 -305l-53 -98q-299 106 -633 186z" />
<glyph unicode="&#xfa;" horiz-adv-x="1110" d="M72 166q0 86 54 282.5t54 241.5t-74 131l5 31q186 41 436 41q16 -35 16 -110.5t-56 -286.5t-56 -250q0 -53 51 -53q35 0 88 26q6 33 37 172q72 309 71 463q94 41 322 41h55q0 -92 -54 -360.5t-55 -309.5t17 -41l100 27l37 -102q-59 -47 -171.5 -90.5t-198.5 -43.5 q-127 0 -158 103q-170 -102 -326 -103q-195 0 -194 191zM414 1128q252 123 561 320q23 -31 52.5 -96.5t29.5 -94.5q0 -72 -76 -104q-115 -53 -532 -127z" />
<glyph unicode="&#xfb;" horiz-adv-x="1110" d="M72 166q0 86 54 282.5t54 241.5t-74 131l5 31q186 41 436 41q16 -35 16 -110.5t-56 -286.5t-56 -250q0 -53 51 -53q35 0 88 26q6 33 37 172q72 309 71 463q94 41 322 41h55q0 -92 -54 -360.5t-55 -309.5t17 -41l100 27l37 -102q-59 -47 -171.5 -90.5t-198.5 -43.5 q-127 0 -158 103q-170 -102 -326 -103q-195 0 -194 191zM274 1122q121 109 290 214.5t237.5 105.5t161 -123t137.5 -215l-86 -74q-184 121 -285 164q-160 -47 -389 -168z" />
<glyph unicode="&#xfc;" horiz-adv-x="1110" d="M72 166q0 86 54 282.5t54 241.5t-74 131l5 31q186 41 436 41q16 -35 16 -110.5t-56 -286.5t-56 -250q0 -53 51 -53q35 0 88 26q6 33 37 172q72 309 71 463q94 41 322 41h55q0 -92 -54 -360.5t-55 -309.5t17 -41l100 27l37 -102q-59 -47 -171.5 -90.5t-198.5 -43.5 q-127 0 -158 103q-170 -102 -326 -103q-195 0 -194 191zM322 1231.5q0 64.5 53 108.5t129 44t118 -35.5t42 -101t-52.5 -114t-128 -48.5t-118.5 41t-43 105.5zM754 1231.5q0 64.5 53 108.5t129 44t118 -35.5t42 -101t-52.5 -114t-128 -48.5t-118.5 41t-43 105.5z" />
<glyph unicode="&#xfd;" horiz-adv-x="1034" d="M63 178q0 78 45.5 275.5t45.5 273.5t-11 113q242 51 375 51q16 -29 16.5 -100.5t-46 -279.5t-46.5 -245q0 -63 62 -63q35 0 80 18q16 104 45.5 318.5t42.5 294.5q53 25 160.5 42t189.5 17h16q-10 -53 -34 -229q-55 -401 -123 -623.5t-191 -361t-328 -138.5 q-88 0 -152.5 44t-64.5 114t34 117t100 78q102 51 264 88q16 78 20 100q-160 -86 -307 -86q-98 0 -145.5 52t-47.5 130zM291 -260q4 -47 48 -47t94 43t81 123q-223 -39 -223 -119zM358 1128q252 123 562 320q23 -31 52 -96.5t29 -94.5q0 -72 -75 -104q-115 -53 -533 -127z " />
<glyph unicode="&#xfe;" horiz-adv-x="989" d="M-55 -365q0 152 141 838t141 883q0 33 -10 84q203 63 381 63q10 -29 10 -76q0 -170 -86 -569q94 47 196.5 47t179.5 -87t77 -251q0 -258 -108.5 -425t-315.5 -167q-106 0 -201 37q-33 -223 -33 -409q-154 -51 -360 -62q-12 24 -12 94zM375 166q44 -12 69 -12q53 0 93 79 q70 143 69 353q0 119 -59 119q-25 0 -62 -13q-90 -418 -110 -526z" />
<glyph unicode="&#xff;" horiz-adv-x="1034" d="M63 178q0 78 45.5 275.5t45.5 273.5t-11 113q242 51 375 51q16 -29 16.5 -100.5t-46 -279.5t-46.5 -245q0 -63 62 -63q35 0 80 18q16 104 45.5 318.5t42.5 294.5q53 25 160.5 42t189.5 17h16q-10 -53 -34 -229q-55 -401 -123 -623.5t-191 -361t-328 -138.5 q-88 0 -152.5 44t-64.5 114t34 117t100 78q102 51 264 88q16 78 20 100q-160 -86 -307 -86q-98 0 -145.5 52t-47.5 130zM264 1231.5q0 64.5 53.5 108.5t129 44t117.5 -35.5t42 -101t-52 -114t-128 -48.5t-119 41t-43 105.5zM291 -260q4 -47 48 -47t94 43t81 123 q-223 -39 -223 -119zM696 1231.5q0 64.5 53.5 108.5t129 44t117.5 -35.5t42 -101t-52 -114t-128 -48.5t-119 41t-43 105.5z" />
<glyph unicode="&#x152;" horiz-adv-x="1814" d="M66 541q0 260 131 495q147 262 368 365q121 55 258 55q180 0 301 -102q139 100 338 100q57 0 129 -14q137 90 306 90t239 -84q-4 -72 -45 -119l-14 -16q-76 82 -219 82q-68 0 -127 -19q92 -72 92 -182.5t-62.5 -196.5t-155 -86t-147.5 57.5t-55 150.5t45 173 q-150 -53 -150 -289q0 -109 33 -194q78 8 113 8q125 0 193.5 -42t68.5 -113.5t-54.5 -124t-166 -52.5t-246.5 80q-74 -92 -74 -178t52.5 -137t141.5 -51t194.5 64.5t177.5 146.5l88 -74q-260 -356 -594 -359q-213 0 -344 105q-133 -104 -299 -105q-236 0 -376 157t-140 409z M469 440q0 -311 168 -311q86 0 154 68q-29 61 -29 139q0 254 293 391q-100 137 -100.5 279.5t59.5 232.5q-59 63 -153.5 63.5t-174.5 -91t-125 -228.5q-92 -281 -92 -543zM1393 678q47 -66 102 -66t55 37q0 21 -21.5 34t-57 13t-78.5 -18zM1548 1132.5q0 -90.5 47 -90.5 q29 0 47.5 32t18.5 81q0 94 -68 129q-45 -61 -45 -151.5z" />
<glyph unicode="&#x153;" horiz-adv-x="1544" d="M41 375q0 203 131 367.5t342 164.5q94 0 156 -30q25 6 78 6t89.5 -47.5t39.5 -104.5q166 176 411 176q125 0 207 -52t82 -159q0 -78 -48 -140t-116 -95q-143 -68 -254 -82l-49 -6q0 -92 39 -147.5t119 -55.5q47 0 97 19.5t77 37.5l26 19l62 -96q-23 -20 -61.5 -49 t-152.5 -77.5t-232.5 -48.5t-201.5 62.5t-112 155.5q-164 -217 -385 -218q-152 0 -248 98.5t-96 301.5zM426 389q0 -209 100 -209q55 0 113.5 62.5t91.5 150.5q-186 18 -186 238q0 63 8 108q-8 4 -31 4q-10 -6 -31.5 -47t-43 -127t-21.5 -180zM1112 502q74 18 123 74.5 t49 128t-54 71.5t-86 -88t-32 -186z" />
<glyph unicode="&#x2c6;" horiz-adv-x="1193" d="M182 1122q121 109 290 214.5t237.5 105.5t161 -123t137.5 -215l-86 -74q-184 121 -285 164q-160 -47 -389 -168z" />
<glyph unicode="&#x2dc;" horiz-adv-x="1239" d="M205 1079q29 309 237 310q45 0 179.5 -33t181.5 -33t70.5 15.5t48.5 60.5l102 -21q-28 -297 -225 -297q-43 0 -178.5 33t-179.5 33t-72.5 -19.5t-57.5 -72.5z" />
<glyph unicode="&#x2000;" horiz-adv-x="1028" />
<glyph unicode="&#x2001;" horiz-adv-x="2056" />
<glyph unicode="&#x2002;" horiz-adv-x="1028" />
<glyph unicode="&#x2003;" horiz-adv-x="2056" />
<glyph unicode="&#x2004;" horiz-adv-x="685" />
<glyph unicode="&#x2005;" horiz-adv-x="514" />
<glyph unicode="&#x2006;" horiz-adv-x="342" />
<glyph unicode="&#x2007;" horiz-adv-x="342" />
<glyph unicode="&#x2008;" horiz-adv-x="257" />
<glyph unicode="&#x2009;" horiz-adv-x="411" />
<glyph unicode="&#x200a;" horiz-adv-x="114" />
<glyph unicode="&#x2010;" horiz-adv-x="866" d="M104 494q0 119 15 180h678q0 -113 -15 -180h-678z" />
<glyph unicode="&#x2011;" horiz-adv-x="866" d="M104 494q0 119 15 180h678q0 -113 -15 -180h-678z" />
<glyph unicode="&#x2012;" horiz-adv-x="866" d="M104 494q0 119 15 180h678q0 -113 -15 -180h-678z" />
<glyph unicode="&#x2013;" horiz-adv-x="1193" d="M104 489q0 117 7 189h1001q0 -59 -6 -189h-1002z" />
<glyph unicode="&#x2014;" horiz-adv-x="2015" d="M125 489q0 78 6 189h1802q0 -102 -6 -189h-1802z" />
<glyph unicode="&#x2018;" horiz-adv-x="616" d="M184 1061q0 92 82 234.5t150 209.5l110 -59q-80 -125 -100 -240l147 -102q0 -78 -40.5 -150.5t-106.5 -119.5q-242 39 -242 227z" />
<glyph unicode="&#x2019;" horiz-adv-x="624" d="M207 1235q0 78 41 150.5t106 119.5q242 -39 242 -227q0 -92 -82 -234.5t-149 -209.5l-111 59q80 125 100 240z" />
<glyph unicode="&#x201a;" horiz-adv-x="628" d="M131 49q0 78 41 150.5t107 119.5q241 -39 241 -227q0 -92 -82 -234.5t-149 -209.5l-111 59q80 125 101 240z" />
<glyph unicode="&#x201c;" horiz-adv-x="1054" d="M184 1061q0 92 82 234.5t150 209.5l110 -59q-86 -133 -104 -240l151 -102q0 -78 -40.5 -150.5t-106.5 -119.5q-242 39 -242 227zM623 1061q0 92 81.5 234.5t149.5 209.5l111 -59q-86 -133 -105 -240l152 -102q0 -78 -41 -150.5t-107 -119.5q-241 39 -241 227z" />
<glyph unicode="&#x201d;" horiz-adv-x="1062" d="M207 1235q0 78 41 150.5t106 119.5q242 -39 242 -227q0 -92 -82 -234.5t-149 -209.5l-111 59q80 125 100 240zM645 1235q0 78 41 150.5t107 119.5q241 -39 241 -227q0 -92 -82 -234.5t-149 -209.5l-111 59q80 125 101 240z" />
<glyph unicode="&#x201e;" horiz-adv-x="1064" d="M131 57q0 78 41 151t107 120q241 -40 241 -228q0 -92 -82 -234t-149 -210l-111 59q80 125 101 240zM569 57q0 78 41 151t107 120q241 -40 241 -228q0 -92 -81.5 -234t-149.5 -210l-111 59q80 125 101 240z" />
<glyph unicode="&#x2022;" horiz-adv-x="925" d="M199 659.5q0 124.5 86 208.5t214 84t202.5 -76.5t74.5 -198.5t-87 -212t-213 -90t-201.5 80t-75.5 204.5z" />
<glyph unicode="&#x202f;" horiz-adv-x="411" />
<glyph unicode="&#x2039;" horiz-adv-x="710" d="M141 593q0 50 137.5 181t290.5 254l95 -84q-160 -227 -215 -340q51 -141 155 -325l-92 -84q-84 59 -227.5 203.5t-143.5 194.5z" />
<glyph unicode="&#x203a;" horiz-adv-x="733" d="M111 274q160 227 215 340q-51 141 -156 326l92 84q84 -59 227.5 -203.5t143.5 -195t-137.5 -181.5t-290.5 -254z" />
<glyph unicode="&#x205f;" horiz-adv-x="514" />
<glyph unicode="&#x20ac;" horiz-adv-x="1269" d="M18.5 550q-0.5 40 6.5 85h163q2 33 11 108q-57 -4 -133 -14q-6 29 -6.5 72t8.5 104h170q78 246 254 397.5t390 151.5t341 -80t127 -203.5t-70 -197.5q-82 0 -188.5 32.5t-159.5 79.5l39 199q-37 20 -90 21q-80 0 -153 -111t-110 -289h439q-4 -59 -29 -131l-10 -26 q-113 10 -215.5 10t-208.5 -4q-6 -59 -6 -119h434q-4 -45 -37 -131l-10 -27q-109 10 -195 10t-126 -1t-60 -1q18 -143 77.5 -212.5t145.5 -69.5q143 0 316 151l96 -96q-20 -31 -86 -89t-126.5 -95t-153.5 -68t-187 -31q-197 0 -330 134.5t-156 367.5q-123 -10 -167 -18 q-4 51 -4.5 91z" />
<glyph unicode="&#x25fc;" horiz-adv-x="901" d="M0 0v901h901v-901h-901z" />
</font>
</defs>
</svg>
